%TF.GenerationSoftware,KiCad,Pcbnew,9.0.6-9.0.6~ubuntu22.04.1*%
%TF.CreationDate,2026-03-20T15:24:08+01:00*%
%TF.ProjectId,PanelBrainSensor,50616e65-6c42-4726-9169-6e53656e736f,rev?*%
%TF.SameCoordinates,Original*%
%TF.FileFunction,Paste,Top*%
%TF.FilePolarity,Positive*%
%FSLAX46Y46*%
G04 Gerber Fmt 4.6, Leading zero omitted, Abs format (unit mm)*
G04 Created by KiCad (PCBNEW 9.0.6-9.0.6~ubuntu22.04.1) date 2026-03-20 15:24:08*
%MOMM*%
%LPD*%
G01*
G04 APERTURE LIST*
G04 Aperture macros list*
%AMRoundRect*
0 Rectangle with rounded corners*
0 $1 Rounding radius*
0 $2 $3 $4 $5 $6 $7 $8 $9 X,Y pos of 4 corners*
0 Add a 4 corners polygon primitive as box body*
4,1,4,$2,$3,$4,$5,$6,$7,$8,$9,$2,$3,0*
0 Add four circle primitives for the rounded corners*
1,1,$1+$1,$2,$3*
1,1,$1+$1,$4,$5*
1,1,$1+$1,$6,$7*
1,1,$1+$1,$8,$9*
0 Add four rect primitives between the rounded corners*
20,1,$1+$1,$2,$3,$4,$5,0*
20,1,$1+$1,$4,$5,$6,$7,0*
20,1,$1+$1,$6,$7,$8,$9,0*
20,1,$1+$1,$8,$9,$2,$3,0*%
%AMRotRect*
0 Rectangle, with rotation*
0 The origin of the aperture is its center*
0 $1 length*
0 $2 width*
0 $3 Rotation angle, in degrees counterclockwise*
0 Add horizontal line*
21,1,$1,$2,0,0,$3*%
G04 Aperture macros list end*
%ADD10RoundRect,0.225000X0.225000X0.250000X-0.225000X0.250000X-0.225000X-0.250000X0.225000X-0.250000X0*%
%ADD11R,1.050000X0.400000*%
%ADD12RoundRect,0.135000X-0.185000X0.135000X-0.185000X-0.135000X0.185000X-0.135000X0.185000X0.135000X0*%
%ADD13R,0.700000X0.650000*%
%ADD14RoundRect,0.140000X0.170000X-0.140000X0.170000X0.140000X-0.170000X0.140000X-0.170000X-0.140000X0*%
%ADD15R,0.450000X1.050000*%
%ADD16R,4.100000X3.500000*%
%ADD17R,1.800000X1.200000*%
%ADD18R,1.400000X1.200000*%
%ADD19R,0.800000X0.300000*%
%ADD20R,0.300000X0.800000*%
%ADD21R,2.750000X2.750000*%
%ADD22RotRect,0.300000X0.800000X45.000000*%
%ADD23RotRect,0.300000X0.800000X315.000000*%
%ADD24RotRect,2.750000X2.750000X315.000000*%
%ADD25RoundRect,0.135000X0.135000X0.185000X-0.135000X0.185000X-0.135000X-0.185000X0.135000X-0.185000X0*%
%ADD26RoundRect,0.140000X-0.170000X0.140000X-0.170000X-0.140000X0.170000X-0.140000X0.170000X0.140000X0*%
%ADD27R,0.600000X0.250000*%
%ADD28R,1.000000X0.200000*%
%ADD29RoundRect,0.140000X0.140000X0.170000X-0.140000X0.170000X-0.140000X-0.170000X0.140000X-0.170000X0*%
%ADD30C,3.200000*%
%ADD31RoundRect,0.225000X-0.225000X-0.250000X0.225000X-0.250000X0.225000X0.250000X-0.225000X0.250000X0*%
%ADD32RoundRect,0.135000X0.185000X-0.135000X0.185000X0.135000X-0.185000X0.135000X-0.185000X-0.135000X0*%
%ADD33RoundRect,0.225000X0.250000X-0.225000X0.250000X0.225000X-0.250000X0.225000X-0.250000X-0.225000X0*%
%ADD34RoundRect,0.225000X-0.250000X0.225000X-0.250000X-0.225000X0.250000X-0.225000X0.250000X0.225000X0*%
%ADD35RoundRect,0.135000X-0.135000X-0.185000X0.135000X-0.185000X0.135000X0.185000X-0.135000X0.185000X0*%
%ADD36R,0.180000X0.325000*%
%ADD37R,0.750000X0.235000*%
%ADD38R,0.215000X1.040000*%
%ADD39R,0.675000X0.200000*%
%ADD40R,0.775000X0.400000*%
%ADD41RoundRect,0.135000X-0.226274X-0.035355X-0.035355X-0.226274X0.226274X0.035355X0.035355X0.226274X0*%
%ADD42R,0.250000X0.600000*%
%ADD43R,0.200000X1.000000*%
%ADD44C,0.270002*%
%ADD45R,0.200000X0.700000*%
%ADD46R,1.200000X1.800000*%
%ADD47RoundRect,0.160000X0.197500X0.160000X-0.197500X0.160000X-0.197500X-0.160000X0.197500X-0.160000X0*%
%ADD48RoundRect,0.160000X-0.197500X-0.160000X0.197500X-0.160000X0.197500X0.160000X-0.197500X0.160000X0*%
%ADD49RoundRect,0.135000X0.226274X0.035355X0.035355X0.226274X-0.226274X-0.035355X-0.035355X-0.226274X0*%
G04 APERTURE END LIST*
D10*
%TO.C,C50*%
X122274213Y-64064215D03*
X120724213Y-64064215D03*
%TD*%
D11*
%TO.C,IC6*%
X188210000Y-107685000D03*
X188209999Y-107035000D03*
X188210000Y-106385000D03*
X186310000Y-106385000D03*
X186310001Y-107035000D03*
X186310000Y-107685000D03*
%TD*%
D12*
%TO.C,R18*%
X145674215Y-59594215D03*
X145674215Y-60614213D03*
%TD*%
D13*
%TO.C,FB5*%
X140428428Y-64533428D03*
X140428428Y-65883428D03*
%TD*%
D14*
%TO.C,C62*%
X184068428Y-65878428D03*
X184068428Y-64918428D03*
%TD*%
D12*
%TO.C,R6*%
X118163349Y-57877728D03*
X118163349Y-58897726D03*
%TD*%
D15*
%TO.C,IC2*%
X182695928Y-74488428D03*
X183965928Y-74488428D03*
X185235928Y-74488428D03*
X186505928Y-74488428D03*
X186505928Y-68788428D03*
X185235928Y-68788428D03*
X183965928Y-68788428D03*
X182695928Y-68788428D03*
D16*
X184600928Y-71638428D03*
%TD*%
D14*
%TO.C,C60*%
X138848428Y-69388428D03*
X138848428Y-68428428D03*
%TD*%
D17*
%TO.C,L4*%
X150674213Y-58004214D03*
X150674213Y-59704214D03*
%TD*%
D18*
%TO.C,Y1*%
X124347950Y-116416052D03*
X126547950Y-116416052D03*
X126547950Y-114716052D03*
X124347950Y-114716052D03*
%TD*%
D11*
%TO.C,IC7*%
X188210000Y-104939500D03*
X188209999Y-104289500D03*
X188210000Y-103639500D03*
X186310000Y-103639500D03*
X186310001Y-104289500D03*
X186310000Y-104939500D03*
%TD*%
D19*
%TO.C,IC1*%
X146760000Y-100180000D03*
X146760000Y-99680001D03*
X146760000Y-99180000D03*
X146760000Y-98680000D03*
X146760000Y-98179999D03*
X146760000Y-97680000D03*
D20*
X146010000Y-96930000D03*
X145510001Y-96930000D03*
X145010000Y-96930000D03*
X144510000Y-96930000D03*
X144009999Y-96930000D03*
X143510000Y-96930000D03*
D19*
X142760000Y-97680000D03*
X142760000Y-98179999D03*
X142760000Y-98680000D03*
X142760000Y-99180000D03*
X142760000Y-99680001D03*
X142760000Y-100180000D03*
D20*
X143510000Y-100930000D03*
X144009999Y-100930000D03*
X144510000Y-100930000D03*
X145010000Y-100930000D03*
X145510001Y-100930000D03*
X146010000Y-100930000D03*
D21*
X144760000Y-98930000D03*
%TD*%
D17*
%TO.C,L2*%
X184945000Y-118895001D03*
X184945000Y-117195001D03*
%TD*%
D22*
%TO.C,IC1*%
X165648098Y-70510331D03*
X165294545Y-70863884D03*
X164940991Y-71217438D03*
X164587438Y-71570991D03*
X164233884Y-71924545D03*
X163880331Y-72278098D03*
D23*
X163880331Y-73338758D03*
X164233884Y-73692311D03*
X164587438Y-74045865D03*
X164940991Y-74399418D03*
X165294545Y-74752972D03*
X165648098Y-75106525D03*
D22*
X166708758Y-75106525D03*
X167062311Y-74752972D03*
X167415865Y-74399418D03*
X167769418Y-74045865D03*
X168122972Y-73692311D03*
X168476525Y-73338758D03*
D23*
X168476525Y-72278098D03*
X168122972Y-71924545D03*
X167769418Y-71570991D03*
X167415865Y-71217438D03*
X167062311Y-70863884D03*
X166708758Y-70510331D03*
D24*
X166178428Y-72808428D03*
%TD*%
D25*
%TO.C,R2*%
X131348427Y-68642998D03*
X130328429Y-68642998D03*
%TD*%
%TO.C,R2*%
X173888427Y-68642998D03*
X172868429Y-68642998D03*
%TD*%
D10*
%TO.C,C46*%
X191314214Y-60604214D03*
X189764214Y-60604214D03*
%TD*%
D26*
%TO.C,C52*%
X159814214Y-60134215D03*
X159814214Y-61094215D03*
%TD*%
D27*
%TO.C,IC4*%
X189480000Y-119370001D03*
X189479999Y-118870001D03*
X189480000Y-118370001D03*
D28*
X188380000Y-118370002D03*
X188380000Y-118870001D03*
X188380000Y-119370000D03*
%TD*%
D29*
%TO.C,C11*%
X121500001Y-98055000D03*
X120540001Y-98055000D03*
%TD*%
D30*
%TO.C,REF\u002A\u002A*%
X201070000Y-129580000D03*
%TD*%
D31*
%TO.C,C6*%
X144305000Y-113340001D03*
X145855000Y-113340001D03*
%TD*%
D32*
%TO.C,R6*%
X190895000Y-117305000D03*
X190895000Y-116285002D03*
%TD*%
D14*
%TO.C,C12*%
X191844999Y-117275001D03*
X191844999Y-116315001D03*
%TD*%
D18*
%TO.C,Y1*%
X181388428Y-64358428D03*
X179188428Y-64358428D03*
X179188428Y-66058428D03*
X181388428Y-66058428D03*
%TD*%
D14*
%TO.C,C15*%
X142480000Y-104864500D03*
X142480000Y-103904500D03*
%TD*%
D13*
%TO.C,FB3*%
X117230000Y-106075000D03*
X117230000Y-104725000D03*
%TD*%
D10*
%TO.C,C45*%
X191314214Y-62084214D03*
X189764214Y-62084214D03*
%TD*%
D12*
%TO.C,R19*%
X168753124Y-120505001D03*
X168753124Y-121524999D03*
%TD*%
D33*
%TO.C,C5*%
X160110001Y-103059999D03*
X160110001Y-101509999D03*
%TD*%
D32*
%TO.C,R3*%
X190955864Y-119531487D03*
X190955864Y-118511489D03*
%TD*%
D26*
%TO.C,C47*%
X143774215Y-59624214D03*
X143774215Y-60584214D03*
%TD*%
%TO.C,C52*%
X117274214Y-60134215D03*
X117274214Y-61094215D03*
%TD*%
D34*
%TO.C,C48*%
X164779213Y-57764215D03*
X164779213Y-59314215D03*
%TD*%
D33*
%TO.C,C9*%
X120520001Y-103054999D03*
X120520001Y-101504999D03*
%TD*%
D32*
%TO.C,R3*%
X171900592Y-70328427D03*
X171900592Y-69308429D03*
%TD*%
D12*
%TO.C,R21*%
X166189375Y-120505001D03*
X166189375Y-121524999D03*
%TD*%
D18*
%TO.C,Y1*%
X166887950Y-116421052D03*
X169087950Y-116421052D03*
X169087950Y-114721052D03*
X166887950Y-114721052D03*
%TD*%
D31*
%TO.C,C10*%
X186845000Y-116295001D03*
X188395000Y-116295001D03*
%TD*%
D32*
%TO.C,R5*%
X138028428Y-74248427D03*
X138028428Y-73228429D03*
%TD*%
D12*
%TO.C,R1*%
X143784214Y-57734215D03*
X143784214Y-58754213D03*
%TD*%
D35*
%TO.C,R1*%
X164490000Y-118710000D03*
X165510000Y-118710000D03*
%TD*%
D36*
%TO.C,J1*%
X179660000Y-120127000D03*
X179660000Y-121903000D03*
X179310000Y-120127000D03*
X179310000Y-121903000D03*
X178960000Y-120127000D03*
X178960000Y-121903000D03*
X178610000Y-120127000D03*
X178610000Y-121903000D03*
X178260000Y-120127000D03*
X178260000Y-121903000D03*
X177910000Y-120127000D03*
X177910000Y-121903000D03*
X177560000Y-120127000D03*
X177560000Y-121903000D03*
X177210000Y-120127000D03*
X177210000Y-121903000D03*
X176860000Y-120127000D03*
X176860000Y-121903000D03*
X176510000Y-120127000D03*
X176510000Y-121903000D03*
X176160000Y-120127000D03*
X176160000Y-121903000D03*
X175810000Y-120127000D03*
X175810000Y-121903000D03*
X175460000Y-120127000D03*
X175460000Y-121903000D03*
X175110000Y-120127000D03*
X175110000Y-121903000D03*
X174760000Y-120127000D03*
X174760000Y-121903000D03*
X174410000Y-120127000D03*
X174410000Y-121903000D03*
X174060000Y-120127000D03*
X174060000Y-121903000D03*
X173710000Y-120127000D03*
X173710000Y-121903000D03*
X173360000Y-120127000D03*
X173360000Y-121903000D03*
X173010000Y-120127000D03*
X173010000Y-121903000D03*
D37*
X180395000Y-120082000D03*
X180395000Y-121948000D03*
X172275000Y-120082000D03*
X172275000Y-121948000D03*
D38*
X180974999Y-121015000D03*
X171695001Y-121015000D03*
%TD*%
D14*
%TO.C,C15*%
X185020000Y-104869500D03*
X185020000Y-103909500D03*
%TD*%
D39*
%TO.C,D1*%
X170018000Y-98050000D03*
X170018000Y-97550000D03*
D40*
X169967999Y-97050000D03*
D39*
X170018000Y-96550000D03*
X170018000Y-96050000D03*
X169142000Y-96050000D03*
X169142000Y-96550000D03*
D40*
X169192001Y-97050000D03*
D39*
X169142000Y-97550000D03*
X169142000Y-98050000D03*
%TD*%
D41*
%TO.C,R8*%
X167118880Y-69308250D03*
X167840128Y-70029498D03*
%TD*%
D34*
%TO.C,C43*%
X191279214Y-57254214D03*
X191279214Y-58804214D03*
%TD*%
D14*
%TO.C,C17*%
X189669999Y-107845000D03*
X189669999Y-106885000D03*
%TD*%
D29*
%TO.C,C11*%
X164040001Y-98060000D03*
X163080001Y-98060000D03*
%TD*%
D14*
%TO.C,C19*%
X189670000Y-110575000D03*
X189670000Y-109615000D03*
%TD*%
%TO.C,C61*%
X184988426Y-65878428D03*
X184988426Y-64918428D03*
%TD*%
D27*
%TO.C,IC8*%
X119639212Y-58039214D03*
X119639213Y-58539214D03*
X119639212Y-59039214D03*
D28*
X120739212Y-59039213D03*
X120739212Y-58539214D03*
X120739212Y-58039215D03*
%TD*%
D10*
%TO.C,C44*%
X191314214Y-63554214D03*
X189764214Y-63554214D03*
%TD*%
D14*
%TO.C,C62*%
X141528428Y-65878428D03*
X141528428Y-64918428D03*
%TD*%
D34*
%TO.C,C48*%
X122239213Y-57764215D03*
X122239213Y-59314215D03*
%TD*%
D12*
%TO.C,R21*%
X119174214Y-60104216D03*
X119174214Y-61124214D03*
%TD*%
D42*
%TO.C,IC3*%
X166135002Y-100424999D03*
X165635002Y-100425000D03*
X165135002Y-100424999D03*
D43*
X165135003Y-101524999D03*
X165635002Y-101524999D03*
X166135001Y-101524999D03*
%TD*%
D10*
%TO.C,C49*%
X164814213Y-61114215D03*
X163264213Y-61114215D03*
%TD*%
D30*
%TO.C,REF\u002A\u002A*%
X201070000Y-49560000D03*
%TD*%
D10*
%TO.C,C49*%
X122274213Y-61114215D03*
X120724213Y-61114215D03*
%TD*%
D27*
%TO.C,IC8*%
X162179212Y-58039214D03*
X162179213Y-58539214D03*
X162179212Y-59039214D03*
D28*
X163279212Y-59039213D03*
X163279212Y-58539214D03*
X163279212Y-58039215D03*
%TD*%
D35*
%TO.C,R7*%
X179778429Y-63088428D03*
X180798427Y-63088428D03*
%TD*%
D13*
%TO.C,FB5*%
X163287950Y-114526052D03*
X163287950Y-115876052D03*
%TD*%
D27*
%TO.C,IC7*%
X146139214Y-57529213D03*
X146139215Y-58029213D03*
X146139214Y-58529213D03*
D28*
X147239214Y-58529212D03*
X147239214Y-58029213D03*
X147239214Y-57529214D03*
%TD*%
D33*
%TO.C,C5*%
X117570001Y-103054999D03*
X117570001Y-101504999D03*
%TD*%
D44*
%TO.C,AKD1*%
X130794214Y-75834214D03*
X130794214Y-75334214D03*
X130794214Y-74834214D03*
X130794214Y-74334214D03*
X130794214Y-73834214D03*
X130794214Y-73334214D03*
X130794214Y-72834214D03*
X130794214Y-72334214D03*
X130794214Y-71834214D03*
X130794214Y-71334214D03*
X130794214Y-70834214D03*
X130794214Y-70334214D03*
X130794214Y-69834214D03*
X131294214Y-75834214D03*
X131294214Y-75334214D03*
X131294214Y-74834215D03*
X131294214Y-74334214D03*
X131294214Y-73834214D03*
X131294214Y-73334213D03*
X131294214Y-72834214D03*
X131294214Y-72334215D03*
X131294214Y-71834214D03*
X131294214Y-71334214D03*
X131294214Y-70834213D03*
X131294214Y-70334214D03*
X131294214Y-69834214D03*
X131794214Y-75834214D03*
X131794213Y-75334214D03*
X131794214Y-74834214D03*
X131794214Y-74334214D03*
X131794214Y-73834214D03*
X131794214Y-73334214D03*
X131794213Y-72834214D03*
X131794214Y-72334214D03*
X131794214Y-71834214D03*
X131794214Y-71334214D03*
X131794214Y-70834214D03*
X131794213Y-70334214D03*
X131794214Y-69834214D03*
X132294214Y-75834214D03*
X132294214Y-75334214D03*
X132294214Y-74834214D03*
X132294214Y-74334214D03*
X132294214Y-73834214D03*
X132294214Y-73334214D03*
X132294214Y-72834214D03*
X132294214Y-72334214D03*
X132294214Y-71834214D03*
X132294214Y-71334214D03*
X132294214Y-70834214D03*
X132294214Y-70334214D03*
X132294214Y-69834214D03*
X132794214Y-75834214D03*
X132794214Y-75334214D03*
X132794214Y-74834214D03*
X132794214Y-74334214D03*
X132794214Y-73834214D03*
X132794214Y-73334214D03*
X132794214Y-72834214D03*
X132794214Y-72334214D03*
X132794214Y-71834214D03*
X132794214Y-71334214D03*
X132794214Y-70834214D03*
X132794214Y-70334214D03*
X132794214Y-69834214D03*
X133294214Y-75834214D03*
X133294215Y-75334214D03*
X133294214Y-74834214D03*
X133294214Y-74334214D03*
X133294214Y-73834214D03*
X133294214Y-73334214D03*
X133294215Y-72834214D03*
X133294214Y-72334214D03*
X133294214Y-71834214D03*
X133294214Y-71334214D03*
X133294214Y-70834214D03*
X133294215Y-70334214D03*
X133294214Y-69834214D03*
X133794214Y-75834214D03*
X133794214Y-75334214D03*
X133794214Y-74834215D03*
X133794214Y-74334214D03*
X133794214Y-73834214D03*
X133794214Y-73334213D03*
X133794214Y-72834214D03*
X133794214Y-72334215D03*
X133794214Y-71834214D03*
X133794214Y-71334214D03*
X133794214Y-70834213D03*
X133794214Y-70334214D03*
X133794214Y-69834214D03*
X134294214Y-75834214D03*
X134294213Y-75334214D03*
X134294214Y-74834214D03*
X134294214Y-74334214D03*
X134294214Y-73834214D03*
X134294214Y-73334214D03*
X134294213Y-72834214D03*
X134294214Y-72334214D03*
X134294214Y-71834214D03*
X134294214Y-71334214D03*
X134294214Y-70834214D03*
X134294213Y-70334214D03*
X134294214Y-69834214D03*
X134794214Y-75834214D03*
X134794214Y-75334214D03*
X134794214Y-74834214D03*
X134794214Y-74334214D03*
X134794214Y-73834214D03*
X134794214Y-73334214D03*
X134794214Y-72834214D03*
X134794214Y-72334214D03*
X134794214Y-71834214D03*
X134794214Y-71334214D03*
X134794214Y-70834214D03*
X134794214Y-70334214D03*
X134794214Y-69834214D03*
X135294214Y-75834214D03*
X135294214Y-75334214D03*
X135294214Y-74834214D03*
X135294214Y-74334214D03*
X135294214Y-73834214D03*
X135294214Y-73334214D03*
X135294214Y-72834214D03*
X135294214Y-72334214D03*
X135294214Y-71834214D03*
X135294214Y-71334214D03*
X135294214Y-70834214D03*
X135294214Y-70334214D03*
X135294214Y-69834214D03*
X135794214Y-75834214D03*
X135794215Y-75334214D03*
X135794214Y-74834214D03*
X135794214Y-74334214D03*
X135794214Y-73834214D03*
X135794214Y-73334214D03*
X135794215Y-72834214D03*
X135794214Y-72334214D03*
X135794214Y-71834214D03*
X135794214Y-71334214D03*
X135794214Y-70834214D03*
X135794215Y-70334214D03*
X135794214Y-69834214D03*
X136294214Y-75834214D03*
X136294214Y-75334214D03*
X136294214Y-74834215D03*
X136294214Y-74334214D03*
X136294214Y-73834214D03*
X136294214Y-73334213D03*
X136294214Y-72834214D03*
X136294214Y-72334215D03*
X136294214Y-71834214D03*
X136294214Y-71334214D03*
X136294214Y-70834213D03*
X136294214Y-70334214D03*
X136294214Y-69834214D03*
X136794214Y-75834214D03*
X136794214Y-75334214D03*
X136794214Y-74834214D03*
X136794214Y-74334214D03*
X136794214Y-73834214D03*
X136794214Y-73334214D03*
X136794214Y-72834214D03*
X136794214Y-72334214D03*
X136794214Y-71834214D03*
X136794214Y-71334214D03*
X136794214Y-70834214D03*
X136794214Y-70334214D03*
X136794214Y-69834214D03*
%TD*%
D12*
%TO.C,R17*%
X122367500Y-120500001D03*
X122367500Y-121519999D03*
%TD*%
D13*
%TO.C,FB5*%
X182968428Y-64533428D03*
X182968428Y-65883428D03*
%TD*%
D45*
%TO.C,J1*%
X138600000Y-56250000D03*
X138600000Y-59330000D03*
X138200000Y-56250000D03*
X138200000Y-59330000D03*
X137800001Y-56250000D03*
X137800001Y-59330000D03*
X137400000Y-56250000D03*
X137400000Y-59330000D03*
X137000000Y-56250000D03*
X137000000Y-59330000D03*
X136600000Y-56250001D03*
X136600000Y-59329999D03*
X136200000Y-56250000D03*
X136200000Y-59330000D03*
X135800000Y-56250000D03*
X135800000Y-59330000D03*
X135400000Y-56250000D03*
X135400000Y-59330000D03*
X135000001Y-56250000D03*
X135000001Y-59330000D03*
X134600000Y-56250000D03*
X134600000Y-59330000D03*
X134200000Y-56250000D03*
X134200000Y-59330000D03*
X133800000Y-56250001D03*
X133800000Y-59329999D03*
X133400000Y-56250000D03*
X133400000Y-59330000D03*
X133000000Y-56250000D03*
X133000000Y-59330000D03*
X132599999Y-56250000D03*
X132599999Y-59330000D03*
X132200000Y-56250000D03*
X132200000Y-59330000D03*
X131800000Y-56250000D03*
X131800000Y-59330000D03*
X131400000Y-56250000D03*
X131400000Y-59330000D03*
X131000000Y-56250001D03*
X131000000Y-59329999D03*
X130600000Y-56250000D03*
X130600000Y-59330000D03*
X130200000Y-56250000D03*
X130200000Y-59330000D03*
X129799999Y-56250000D03*
X129799999Y-59330000D03*
X129400000Y-56250000D03*
X129400000Y-59330000D03*
X129000000Y-56250000D03*
X129000000Y-59330000D03*
%TD*%
D10*
%TO.C,C45*%
X148774214Y-62084214D03*
X147224214Y-62084214D03*
%TD*%
D14*
%TO.C,C16*%
X189670000Y-105099500D03*
X189670000Y-104139500D03*
%TD*%
D46*
%TO.C,L1*%
X123120001Y-104954998D03*
X121420001Y-104954998D03*
%TD*%
D33*
%TO.C,C7*%
X119040001Y-103054999D03*
X119040001Y-101504999D03*
%TD*%
D47*
%TO.C,R11*%
X171715450Y-114691052D03*
X170520450Y-114691052D03*
%TD*%
D31*
%TO.C,C8*%
X144305000Y-114810001D03*
X145855000Y-114810001D03*
%TD*%
D25*
%TO.C,R5*%
X164070000Y-99960000D03*
X163050002Y-99960000D03*
%TD*%
D35*
%TO.C,R7*%
X137238429Y-63088428D03*
X138258427Y-63088428D03*
%TD*%
D14*
%TO.C,C16*%
X147130000Y-105094500D03*
X147130000Y-104134500D03*
%TD*%
D26*
%TO.C,C1*%
X121967950Y-114716052D03*
X121967950Y-115676052D03*
%TD*%
D31*
%TO.C,C10*%
X144305000Y-116290001D03*
X145855000Y-116290001D03*
%TD*%
D17*
%TO.C,L5*%
X166714212Y-58514215D03*
X166714212Y-60214215D03*
%TD*%
D14*
%TO.C,C12*%
X149304999Y-117270001D03*
X149304999Y-116310001D03*
%TD*%
D12*
%TO.C,R17*%
X164907500Y-120505001D03*
X164907500Y-121524999D03*
%TD*%
D22*
%TO.C,IC1*%
X123108098Y-70510331D03*
X122754545Y-70863884D03*
X122400991Y-71217438D03*
X122047438Y-71570991D03*
X121693884Y-71924545D03*
X121340331Y-72278098D03*
D23*
X121340331Y-73338758D03*
X121693884Y-73692311D03*
X122047438Y-74045865D03*
X122400991Y-74399418D03*
X122754545Y-74752972D03*
X123108098Y-75106525D03*
D22*
X124168758Y-75106525D03*
X124522311Y-74752972D03*
X124875865Y-74399418D03*
X125229418Y-74045865D03*
X125582972Y-73692311D03*
X125936525Y-73338758D03*
D23*
X125936525Y-72278098D03*
X125582972Y-71924545D03*
X125229418Y-71570991D03*
X124875865Y-71217438D03*
X124522311Y-70863884D03*
X124168758Y-70510331D03*
D24*
X123638428Y-72808428D03*
%TD*%
D14*
%TO.C,C61*%
X142448426Y-65878428D03*
X142448426Y-64918428D03*
%TD*%
D12*
%TO.C,R20*%
X124931250Y-120500001D03*
X124931250Y-121519999D03*
%TD*%
D33*
%TO.C,C3*%
X144340000Y-119640001D03*
X144340000Y-118090001D03*
%TD*%
D10*
%TO.C,C4*%
X166410001Y-103024999D03*
X164860001Y-103024999D03*
%TD*%
D12*
%TO.C,R19*%
X160764213Y-60104217D03*
X160764213Y-61124215D03*
%TD*%
D10*
%TO.C,C44*%
X148774214Y-63554214D03*
X147224214Y-63554214D03*
%TD*%
D32*
%TO.C,R6*%
X148355000Y-117300000D03*
X148355000Y-116280002D03*
%TD*%
D12*
%TO.C,R1*%
X186324214Y-57734215D03*
X186324214Y-58754213D03*
%TD*%
%TO.C,R20*%
X167471250Y-120505001D03*
X167471250Y-121524999D03*
%TD*%
D42*
%TO.C,IC3*%
X123595002Y-100419999D03*
X123095002Y-100420000D03*
X122595002Y-100419999D03*
D43*
X122595003Y-101519999D03*
X123095002Y-101519999D03*
X123595001Y-101519999D03*
%TD*%
D36*
%TO.C,J1*%
X137120000Y-120122000D03*
X137120000Y-121898000D03*
X136770000Y-120122000D03*
X136770000Y-121898000D03*
X136420000Y-120122000D03*
X136420000Y-121898000D03*
X136070000Y-120122000D03*
X136070000Y-121898000D03*
X135720000Y-120122000D03*
X135720000Y-121898000D03*
X135370000Y-120122000D03*
X135370000Y-121898000D03*
X135020000Y-120122000D03*
X135020000Y-121898000D03*
X134670000Y-120122000D03*
X134670000Y-121898000D03*
X134320000Y-120122000D03*
X134320000Y-121898000D03*
X133970000Y-120122000D03*
X133970000Y-121898000D03*
X133620000Y-120122000D03*
X133620000Y-121898000D03*
X133270000Y-120122000D03*
X133270000Y-121898000D03*
X132920000Y-120122000D03*
X132920000Y-121898000D03*
X132570000Y-120122000D03*
X132570000Y-121898000D03*
X132220000Y-120122000D03*
X132220000Y-121898000D03*
X131870000Y-120122000D03*
X131870000Y-121898000D03*
X131520000Y-120122000D03*
X131520000Y-121898000D03*
X131170000Y-120122000D03*
X131170000Y-121898000D03*
X130820000Y-120122000D03*
X130820000Y-121898000D03*
X130470000Y-120122000D03*
X130470000Y-121898000D03*
D37*
X137855000Y-120077000D03*
X137855000Y-121943000D03*
X129735000Y-120077000D03*
X129735000Y-121943000D03*
D38*
X138434999Y-121010000D03*
X129155001Y-121010000D03*
%TD*%
D12*
%TO.C,R21*%
X161714214Y-60104216D03*
X161714214Y-61124214D03*
%TD*%
D32*
%TO.C,R7*%
X189945000Y-117304999D03*
X189945000Y-116285001D03*
%TD*%
D13*
%TO.C,FB3*%
X159770000Y-106080000D03*
X159770000Y-104730000D03*
%TD*%
D26*
%TO.C,C2*%
X165437950Y-114721052D03*
X165437950Y-115681052D03*
%TD*%
D47*
%TO.C,R11*%
X129175450Y-114686052D03*
X127980450Y-114686052D03*
%TD*%
D11*
%TO.C,IC5*%
X188210000Y-110415000D03*
X188209999Y-109765000D03*
X188210000Y-109115000D03*
X186310000Y-109115000D03*
X186310001Y-109765000D03*
X186310000Y-110415000D03*
%TD*%
D27*
%TO.C,IC4*%
X146940000Y-119365001D03*
X146939999Y-118865001D03*
X146940000Y-118365001D03*
D28*
X145840000Y-118365002D03*
X145840000Y-118865001D03*
X145840000Y-119365000D03*
%TD*%
D31*
%TO.C,C8*%
X186845000Y-114815001D03*
X188395000Y-114815001D03*
%TD*%
D27*
%TO.C,IC7*%
X188679214Y-57529213D03*
X188679215Y-58029213D03*
X188679214Y-58529213D03*
D28*
X189779214Y-58529212D03*
X189779214Y-58029213D03*
X189779214Y-57529214D03*
%TD*%
D33*
%TO.C,C3*%
X186880000Y-119645001D03*
X186880000Y-118095001D03*
%TD*%
D32*
%TO.C,R5*%
X180568428Y-74248427D03*
X180568428Y-73228429D03*
%TD*%
D12*
%TO.C,R6*%
X160703349Y-57877728D03*
X160703349Y-58897726D03*
%TD*%
D35*
%TO.C,R1*%
X121950000Y-118705000D03*
X122970000Y-118705000D03*
%TD*%
D32*
%TO.C,R7*%
X147405000Y-117299999D03*
X147405000Y-116280001D03*
%TD*%
D11*
%TO.C,IC6*%
X145670000Y-107680000D03*
X145669999Y-107030000D03*
X145670000Y-106380000D03*
X143770000Y-106380000D03*
X143770001Y-107030000D03*
X143770000Y-107680000D03*
%TD*%
D14*
%TO.C,C60*%
X181388428Y-69388428D03*
X181388428Y-68428428D03*
%TD*%
%TO.C,C18*%
X142479999Y-107610000D03*
X142479999Y-106650000D03*
%TD*%
D39*
%TO.C,D1*%
X127478000Y-98045000D03*
X127478000Y-97545000D03*
D40*
X127427999Y-97045000D03*
D39*
X127478000Y-96545000D03*
X127478000Y-96045000D03*
X126602000Y-96045000D03*
X126602000Y-96545000D03*
D40*
X126652001Y-97045000D03*
D39*
X126602000Y-97545000D03*
X126602000Y-98045000D03*
%TD*%
D14*
%TO.C,C19*%
X147130000Y-110570000D03*
X147130000Y-109610000D03*
%TD*%
D26*
%TO.C,C2*%
X122897950Y-114716052D03*
X122897950Y-115676052D03*
%TD*%
D11*
%TO.C,IC5*%
X145670000Y-110410000D03*
X145669999Y-109760000D03*
X145670000Y-109110000D03*
X143770000Y-109110000D03*
X143770001Y-109760000D03*
X143770000Y-110410000D03*
%TD*%
D12*
%TO.C,R19*%
X126213124Y-120500001D03*
X126213124Y-121519999D03*
%TD*%
D34*
%TO.C,C43*%
X148739214Y-57254214D03*
X148739214Y-58804214D03*
%TD*%
D41*
%TO.C,R8*%
X124578880Y-69308250D03*
X125300128Y-70029498D03*
%TD*%
D10*
%TO.C,C46*%
X148774214Y-60604214D03*
X147224214Y-60604214D03*
%TD*%
D17*
%TO.C,L4*%
X193214213Y-58004214D03*
X193214213Y-59704214D03*
%TD*%
D26*
%TO.C,C1*%
X164507950Y-114721052D03*
X164507950Y-115681052D03*
%TD*%
D10*
%TO.C,C4*%
X123870001Y-103019999D03*
X122320001Y-103019999D03*
%TD*%
D13*
%TO.C,FB5*%
X120747950Y-114521052D03*
X120747950Y-115871052D03*
%TD*%
D19*
%TO.C,IC1*%
X189300000Y-100185000D03*
X189300000Y-99685001D03*
X189300000Y-99185000D03*
X189300000Y-98685000D03*
X189300000Y-98184999D03*
X189300000Y-97685000D03*
D20*
X188550000Y-96935000D03*
X188050001Y-96935000D03*
X187550000Y-96935000D03*
X187050000Y-96935000D03*
X186549999Y-96935000D03*
X186050000Y-96935000D03*
D19*
X185300000Y-97685000D03*
X185300000Y-98184999D03*
X185300000Y-98685000D03*
X185300000Y-99185000D03*
X185300000Y-99685001D03*
X185300000Y-100185000D03*
D20*
X186050000Y-100935000D03*
X186549999Y-100935000D03*
X187050000Y-100935000D03*
X187550000Y-100935000D03*
X188050001Y-100935000D03*
X188550000Y-100935000D03*
D21*
X187300000Y-98935000D03*
%TD*%
D14*
%TO.C,C20*%
X185020000Y-110345000D03*
X185020000Y-109385000D03*
%TD*%
D12*
%TO.C,R21*%
X123649375Y-120500001D03*
X123649375Y-121519999D03*
%TD*%
D17*
%TO.C,L5*%
X124174212Y-58514215D03*
X124174212Y-60214215D03*
%TD*%
D33*
%TO.C,C9*%
X163060001Y-103059999D03*
X163060001Y-101509999D03*
%TD*%
D14*
%TO.C,C18*%
X185019999Y-107615000D03*
X185019999Y-106655000D03*
%TD*%
D35*
%TO.C,R4*%
X139728429Y-75748428D03*
X140748427Y-75748428D03*
%TD*%
D48*
%TO.C,R11*%
X176650927Y-66038427D03*
X177845927Y-66038427D03*
%TD*%
D30*
%TO.C,REF\u002A\u002A*%
X109070000Y-49560000D03*
%TD*%
D17*
%TO.C,L2*%
X142405000Y-118890001D03*
X142405000Y-117190001D03*
%TD*%
D14*
%TO.C,C17*%
X147129999Y-107840000D03*
X147129999Y-106880000D03*
%TD*%
D18*
%TO.C,Y1*%
X138848428Y-64358428D03*
X136648428Y-64358428D03*
X136648428Y-66058428D03*
X138848428Y-66058428D03*
%TD*%
D25*
%TO.C,R5*%
X121530000Y-99955000D03*
X120510002Y-99955000D03*
%TD*%
D12*
%TO.C,R18*%
X188214215Y-59594215D03*
X188214215Y-60614213D03*
%TD*%
D14*
%TO.C,C20*%
X142480000Y-110340000D03*
X142480000Y-109380000D03*
%TD*%
D32*
%TO.C,R3*%
X129360592Y-70328427D03*
X129360592Y-69308429D03*
%TD*%
D25*
%TO.C,R4*%
X121529999Y-99004999D03*
X120510001Y-99004999D03*
%TD*%
D48*
%TO.C,R11*%
X134110927Y-66038427D03*
X135305927Y-66038427D03*
%TD*%
D10*
%TO.C,C51*%
X122274213Y-62594215D03*
X120724213Y-62594215D03*
%TD*%
D31*
%TO.C,C6*%
X186845000Y-113345001D03*
X188395000Y-113345001D03*
%TD*%
D32*
%TO.C,R3*%
X148415864Y-119526487D03*
X148415864Y-118506489D03*
%TD*%
D12*
%TO.C,R17*%
X187264214Y-59594216D03*
X187264214Y-60614214D03*
%TD*%
D25*
%TO.C,R4*%
X164069999Y-99009999D03*
X163050001Y-99009999D03*
%TD*%
D49*
%TO.C,R9*%
X164974838Y-76044838D03*
X164253590Y-75323590D03*
%TD*%
%TO.C,R9*%
X122434838Y-76044838D03*
X121713590Y-75323590D03*
%TD*%
D46*
%TO.C,L1*%
X165660001Y-104959998D03*
X163960001Y-104959998D03*
%TD*%
D12*
%TO.C,R19*%
X118224213Y-60104217D03*
X118224213Y-61124215D03*
%TD*%
D45*
%TO.C,J1*%
X181140000Y-56250000D03*
X181140000Y-59330000D03*
X180740000Y-56250000D03*
X180740000Y-59330000D03*
X180340001Y-56250000D03*
X180340001Y-59330000D03*
X179940000Y-56250000D03*
X179940000Y-59330000D03*
X179540000Y-56250000D03*
X179540000Y-59330000D03*
X179140000Y-56250001D03*
X179140000Y-59329999D03*
X178740000Y-56250000D03*
X178740000Y-59330000D03*
X178340000Y-56250000D03*
X178340000Y-59330000D03*
X177940000Y-56250000D03*
X177940000Y-59330000D03*
X177540001Y-56250000D03*
X177540001Y-59330000D03*
X177140000Y-56250000D03*
X177140000Y-59330000D03*
X176740000Y-56250000D03*
X176740000Y-59330000D03*
X176340000Y-56250001D03*
X176340000Y-59329999D03*
X175940000Y-56250000D03*
X175940000Y-59330000D03*
X175540000Y-56250000D03*
X175540000Y-59330000D03*
X175139999Y-56250000D03*
X175139999Y-59330000D03*
X174740000Y-56250000D03*
X174740000Y-59330000D03*
X174340000Y-56250000D03*
X174340000Y-59330000D03*
X173940000Y-56250000D03*
X173940000Y-59330000D03*
X173540000Y-56250001D03*
X173540000Y-59329999D03*
X173140000Y-56250000D03*
X173140000Y-59330000D03*
X172740000Y-56250000D03*
X172740000Y-59330000D03*
X172339999Y-56250000D03*
X172339999Y-59330000D03*
X171940000Y-56250000D03*
X171940000Y-59330000D03*
X171540000Y-56250000D03*
X171540000Y-59330000D03*
%TD*%
D12*
%TO.C,R17*%
X144724214Y-59594216D03*
X144724214Y-60614214D03*
%TD*%
D10*
%TO.C,C51*%
X164814213Y-62594215D03*
X163264213Y-62594215D03*
%TD*%
D44*
%TO.C,AKD1*%
X173334214Y-75834214D03*
X173334214Y-75334214D03*
X173334214Y-74834214D03*
X173334214Y-74334214D03*
X173334214Y-73834214D03*
X173334214Y-73334214D03*
X173334214Y-72834214D03*
X173334214Y-72334214D03*
X173334214Y-71834214D03*
X173334214Y-71334214D03*
X173334214Y-70834214D03*
X173334214Y-70334214D03*
X173334214Y-69834214D03*
X173834214Y-75834214D03*
X173834214Y-75334214D03*
X173834214Y-74834215D03*
X173834214Y-74334214D03*
X173834214Y-73834214D03*
X173834214Y-73334213D03*
X173834214Y-72834214D03*
X173834214Y-72334215D03*
X173834214Y-71834214D03*
X173834214Y-71334214D03*
X173834214Y-70834213D03*
X173834214Y-70334214D03*
X173834214Y-69834214D03*
X174334214Y-75834214D03*
X174334213Y-75334214D03*
X174334214Y-74834214D03*
X174334214Y-74334214D03*
X174334214Y-73834214D03*
X174334214Y-73334214D03*
X174334213Y-72834214D03*
X174334214Y-72334214D03*
X174334214Y-71834214D03*
X174334214Y-71334214D03*
X174334214Y-70834214D03*
X174334213Y-70334214D03*
X174334214Y-69834214D03*
X174834214Y-75834214D03*
X174834214Y-75334214D03*
X174834214Y-74834214D03*
X174834214Y-74334214D03*
X174834214Y-73834214D03*
X174834214Y-73334214D03*
X174834214Y-72834214D03*
X174834214Y-72334214D03*
X174834214Y-71834214D03*
X174834214Y-71334214D03*
X174834214Y-70834214D03*
X174834214Y-70334214D03*
X174834214Y-69834214D03*
X175334214Y-75834214D03*
X175334214Y-75334214D03*
X175334214Y-74834214D03*
X175334214Y-74334214D03*
X175334214Y-73834214D03*
X175334214Y-73334214D03*
X175334214Y-72834214D03*
X175334214Y-72334214D03*
X175334214Y-71834214D03*
X175334214Y-71334214D03*
X175334214Y-70834214D03*
X175334214Y-70334214D03*
X175334214Y-69834214D03*
X175834214Y-75834214D03*
X175834215Y-75334214D03*
X175834214Y-74834214D03*
X175834214Y-74334214D03*
X175834214Y-73834214D03*
X175834214Y-73334214D03*
X175834215Y-72834214D03*
X175834214Y-72334214D03*
X175834214Y-71834214D03*
X175834214Y-71334214D03*
X175834214Y-70834214D03*
X175834215Y-70334214D03*
X175834214Y-69834214D03*
X176334214Y-75834214D03*
X176334214Y-75334214D03*
X176334214Y-74834215D03*
X176334214Y-74334214D03*
X176334214Y-73834214D03*
X176334214Y-73334213D03*
X176334214Y-72834214D03*
X176334214Y-72334215D03*
X176334214Y-71834214D03*
X176334214Y-71334214D03*
X176334214Y-70834213D03*
X176334214Y-70334214D03*
X176334214Y-69834214D03*
X176834214Y-75834214D03*
X176834213Y-75334214D03*
X176834214Y-74834214D03*
X176834214Y-74334214D03*
X176834214Y-73834214D03*
X176834214Y-73334214D03*
X176834213Y-72834214D03*
X176834214Y-72334214D03*
X176834214Y-71834214D03*
X176834214Y-71334214D03*
X176834214Y-70834214D03*
X176834213Y-70334214D03*
X176834214Y-69834214D03*
X177334214Y-75834214D03*
X177334214Y-75334214D03*
X177334214Y-74834214D03*
X177334214Y-74334214D03*
X177334214Y-73834214D03*
X177334214Y-73334214D03*
X177334214Y-72834214D03*
X177334214Y-72334214D03*
X177334214Y-71834214D03*
X177334214Y-71334214D03*
X177334214Y-70834214D03*
X177334214Y-70334214D03*
X177334214Y-69834214D03*
X177834214Y-75834214D03*
X177834214Y-75334214D03*
X177834214Y-74834214D03*
X177834214Y-74334214D03*
X177834214Y-73834214D03*
X177834214Y-73334214D03*
X177834214Y-72834214D03*
X177834214Y-72334214D03*
X177834214Y-71834214D03*
X177834214Y-71334214D03*
X177834214Y-70834214D03*
X177834214Y-70334214D03*
X177834214Y-69834214D03*
X178334214Y-75834214D03*
X178334215Y-75334214D03*
X178334214Y-74834214D03*
X178334214Y-74334214D03*
X178334214Y-73834214D03*
X178334214Y-73334214D03*
X178334215Y-72834214D03*
X178334214Y-72334214D03*
X178334214Y-71834214D03*
X178334214Y-71334214D03*
X178334214Y-70834214D03*
X178334215Y-70334214D03*
X178334214Y-69834214D03*
X178834214Y-75834214D03*
X178834214Y-75334214D03*
X178834214Y-74834215D03*
X178834214Y-74334214D03*
X178834214Y-73834214D03*
X178834214Y-73334213D03*
X178834214Y-72834214D03*
X178834214Y-72334215D03*
X178834214Y-71834214D03*
X178834214Y-71334214D03*
X178834214Y-70834213D03*
X178834214Y-70334214D03*
X178834214Y-69834214D03*
X179334214Y-75834214D03*
X179334214Y-75334214D03*
X179334214Y-74834214D03*
X179334214Y-74334214D03*
X179334214Y-73834214D03*
X179334214Y-73334214D03*
X179334214Y-72834214D03*
X179334214Y-72334214D03*
X179334214Y-71834214D03*
X179334214Y-71334214D03*
X179334214Y-70834214D03*
X179334214Y-70334214D03*
X179334214Y-69834214D03*
%TD*%
D15*
%TO.C,IC2*%
X140155928Y-74488428D03*
X141425928Y-74488428D03*
X142695928Y-74488428D03*
X143965928Y-74488428D03*
X143965928Y-68788428D03*
X142695928Y-68788428D03*
X141425928Y-68788428D03*
X140155928Y-68788428D03*
D16*
X142060928Y-71638428D03*
%TD*%
D11*
%TO.C,IC7*%
X145670000Y-104934500D03*
X145669999Y-104284500D03*
X145670000Y-103634500D03*
X143770000Y-103634500D03*
X143770001Y-104284500D03*
X143770000Y-104934500D03*
%TD*%
D10*
%TO.C,C50*%
X164814213Y-64064215D03*
X163264213Y-64064215D03*
%TD*%
D33*
%TO.C,C7*%
X161580001Y-103059999D03*
X161580001Y-101509999D03*
%TD*%
D35*
%TO.C,R4*%
X182268429Y-75748428D03*
X183288427Y-75748428D03*
%TD*%
D30*
%TO.C,REF\u002A\u002A*%
X109070000Y-129580000D03*
%TD*%
D26*
%TO.C,C47*%
X186314215Y-59624214D03*
X186314215Y-60584214D03*
%TD*%
M02*
