%TF.GenerationSoftware,KiCad,Pcbnew,9.0.6-9.0.6~ubuntu22.04.1*%
%TF.CreationDate,2026-03-20T15:24:08+01:00*%
%TF.ProjectId,PanelBrainSensor,50616e65-6c42-4726-9169-6e53656e736f,rev?*%
%TF.SameCoordinates,Original*%
%TF.FileFunction,Soldermask,Bot*%
%TF.FilePolarity,Negative*%
%FSLAX46Y46*%
G04 Gerber Fmt 4.6, Leading zero omitted, Abs format (unit mm)*
G04 Created by KiCad (PCBNEW 9.0.6-9.0.6~ubuntu22.04.1) date 2026-03-20 15:24:08*
%MOMM*%
%LPD*%
G01*
G04 APERTURE LIST*
G04 Aperture macros list*
%AMRoundRect*
0 Rectangle with rounded corners*
0 $1 Rounding radius*
0 $2 $3 $4 $5 $6 $7 $8 $9 X,Y pos of 4 corners*
0 Add a 4 corners polygon primitive as box body*
4,1,4,$2,$3,$4,$5,$6,$7,$8,$9,$2,$3,0*
0 Add four circle primitives for the rounded corners*
1,1,$1+$1,$2,$3*
1,1,$1+$1,$4,$5*
1,1,$1+$1,$6,$7*
1,1,$1+$1,$8,$9*
0 Add four rect primitives between the rounded corners*
20,1,$1+$1,$2,$3,$4,$5,0*
20,1,$1+$1,$4,$5,$6,$7,0*
20,1,$1+$1,$6,$7,$8,$9,0*
20,1,$1+$1,$8,$9,$2,$3,0*%
G04 Aperture macros list end*
%ADD10C,0.500000*%
%ADD11C,3.200000*%
%ADD12RoundRect,0.135000X-0.185000X0.135000X-0.185000X-0.135000X0.185000X-0.135000X0.185000X0.135000X0*%
%ADD13RoundRect,0.140000X-0.140000X-0.170000X0.140000X-0.170000X0.140000X0.170000X-0.140000X0.170000X0*%
%ADD14RoundRect,0.140000X0.170000X-0.140000X0.170000X0.140000X-0.170000X0.140000X-0.170000X-0.140000X0*%
%ADD15R,0.230000X0.660000*%
%ADD16R,0.350000X0.660000*%
%ADD17RoundRect,0.140000X-0.170000X0.140000X-0.170000X-0.140000X0.170000X-0.140000X0.170000X0.140000X0*%
%ADD18RoundRect,0.140000X0.140000X0.170000X-0.140000X0.170000X-0.140000X-0.170000X0.140000X-0.170000X0*%
%ADD19R,0.650000X0.700000*%
%ADD20RoundRect,0.225000X0.225000X0.250000X-0.225000X0.250000X-0.225000X-0.250000X0.225000X-0.250000X0*%
%ADD21RoundRect,0.225000X-0.250000X0.225000X-0.250000X-0.225000X0.250000X-0.225000X0.250000X0.225000X0*%
%ADD22C,2.000000*%
%ADD23R,0.600000X0.175000*%
%ADD24R,0.500000X0.175000*%
%ADD25RoundRect,0.135000X0.135000X0.185000X-0.135000X0.185000X-0.135000X-0.185000X0.135000X-0.185000X0*%
%ADD26RoundRect,0.135000X-0.135000X-0.185000X0.135000X-0.185000X0.135000X0.185000X-0.135000X0.185000X0*%
%ADD27RoundRect,0.135000X0.185000X-0.135000X0.185000X0.135000X-0.185000X0.135000X-0.185000X-0.135000X0*%
%ADD28R,0.175000X0.600000*%
%ADD29R,0.175000X0.500000*%
%ADD30RoundRect,0.250000X-0.650000X0.325000X-0.650000X-0.325000X0.650000X-0.325000X0.650000X0.325000X0*%
%ADD31RoundRect,0.250000X0.325000X0.650000X-0.325000X0.650000X-0.325000X-0.650000X0.325000X-0.650000X0*%
G04 APERTURE END LIST*
D10*
%TO.C,mouse-bite-2.54mm-slot*%
X124600000Y-127219999D03*
X124600000Y-125019999D03*
X123800000Y-127219998D03*
X123800000Y-125020000D03*
X123000000Y-127219999D03*
X123000000Y-125019999D03*
%TD*%
%TO.C,mouse-bite-2.54mm-slot*%
X111430000Y-82090000D03*
X113630000Y-82090000D03*
X111430001Y-81290000D03*
X113629999Y-81290000D03*
X111430000Y-80490000D03*
X113630000Y-80490000D03*
%TD*%
%TO.C,mouse-bite-2.54mm-slot*%
X153969999Y-118650000D03*
X156169999Y-118650000D03*
X153970000Y-117850000D03*
X156169998Y-117850000D03*
X153969999Y-117050000D03*
X156169999Y-117050000D03*
%TD*%
%TO.C,mouse-bite-2.54mm-slot*%
X111430000Y-118645000D03*
X113630000Y-118645000D03*
X111430001Y-117845000D03*
X113629999Y-117845000D03*
X111430000Y-117045000D03*
X113630000Y-117045000D03*
%TD*%
%TO.C,mouse-bite-2.54mm-slot*%
X143000000Y-51920000D03*
X143000000Y-54120000D03*
X143800000Y-51920000D03*
X143800000Y-54120000D03*
X144600000Y-51920000D03*
X144600000Y-54120000D03*
%TD*%
D11*
%TO.C,REF\u002A\u002A*%
X201070000Y-129580000D03*
%TD*%
D10*
%TO.C,mouse-bite-2.54mm-slot*%
X144600000Y-90670000D03*
X144600000Y-88470000D03*
X143800000Y-90669999D03*
X143800000Y-88470001D03*
X143000000Y-90670000D03*
X143000000Y-88470000D03*
%TD*%
%TO.C,mouse-bite-2.54mm-slot*%
X153969999Y-98650000D03*
X156169999Y-98650000D03*
X153970000Y-97850000D03*
X156169998Y-97850000D03*
X153969999Y-97050000D03*
X156169999Y-97050000D03*
%TD*%
%TO.C,mouse-bite-2.54mm-slot*%
X156170000Y-80495000D03*
X153970000Y-80495000D03*
X156169999Y-81295000D03*
X153970001Y-81295000D03*
X156170000Y-82095000D03*
X153970000Y-82095000D03*
%TD*%
%TO.C,mouse-bite-2.54mm-slot*%
X111430000Y-98645000D03*
X113630000Y-98645000D03*
X111430001Y-97845000D03*
X113629999Y-97845000D03*
X111430000Y-97045000D03*
X113630000Y-97045000D03*
%TD*%
%TO.C,mouse-bite-2.54mm-slot*%
X185540000Y-51920000D03*
X185540000Y-54120000D03*
X186340000Y-51920000D03*
X186340000Y-54120000D03*
X187140000Y-51920000D03*
X187140000Y-54120000D03*
%TD*%
%TO.C,mouse-bite-2.54mm-slot*%
X156170000Y-60495000D03*
X153970000Y-60495000D03*
X156169999Y-61295000D03*
X153970001Y-61295000D03*
X156170000Y-62095000D03*
X153970000Y-62095000D03*
%TD*%
%TO.C,mouse-bite-2.54mm-slot*%
X167140000Y-127220000D03*
X167140000Y-125020000D03*
X166340000Y-127219999D03*
X166340000Y-125020001D03*
X165540000Y-127220000D03*
X165540000Y-125020000D03*
%TD*%
%TO.C,mouse-bite-2.54mm-slot*%
X111430000Y-62090000D03*
X113630000Y-62090000D03*
X111430001Y-61290000D03*
X113629999Y-61290000D03*
X111430000Y-60490000D03*
X113630000Y-60490000D03*
%TD*%
%TO.C,mouse-bite-2.54mm-slot*%
X198710000Y-80490000D03*
X196510000Y-80490000D03*
X198709999Y-81290000D03*
X196510001Y-81290000D03*
X198710000Y-82090000D03*
X196510000Y-82090000D03*
%TD*%
D11*
%TO.C,REF\u002A\u002A*%
X201070000Y-49560000D03*
%TD*%
D10*
%TO.C,mouse-bite-2.54mm-slot*%
X144600000Y-127220000D03*
X144600000Y-125020000D03*
X143800000Y-127219999D03*
X143800000Y-125020001D03*
X143000000Y-127220000D03*
X143000000Y-125020000D03*
%TD*%
%TO.C,mouse-bite-2.54mm-slot*%
X123000000Y-51920000D03*
X123000000Y-54120000D03*
X123800000Y-51920000D03*
X123800000Y-54120000D03*
X124600000Y-51920000D03*
X124600000Y-54120000D03*
%TD*%
%TO.C,mouse-bite-2.54mm-slot*%
X165540000Y-51920000D03*
X165540000Y-54120000D03*
X166340000Y-51920000D03*
X166340000Y-54120000D03*
X167140000Y-51920000D03*
X167140000Y-54120000D03*
%TD*%
%TO.C,mouse-bite-2.54mm-slot*%
X187140000Y-127220000D03*
X187140000Y-125020000D03*
X186340000Y-127219999D03*
X186340000Y-125020001D03*
X185540000Y-127220000D03*
X185540000Y-125020000D03*
%TD*%
%TO.C,mouse-bite-2.54mm-slot*%
X198710000Y-97050000D03*
X196510000Y-97050000D03*
X198709999Y-97850000D03*
X196510001Y-97850000D03*
X198710000Y-98650000D03*
X196510000Y-98650000D03*
%TD*%
%TO.C,mouse-bite-2.54mm-slot*%
X198710000Y-117050000D03*
X196510000Y-117050000D03*
X198709999Y-117850000D03*
X196510001Y-117850000D03*
X198710000Y-118650000D03*
X196510000Y-118650000D03*
%TD*%
%TO.C,mouse-bite-2.54mm-slot*%
X187140000Y-90670001D03*
X187140000Y-88470001D03*
X186340000Y-90670000D03*
X186340000Y-88470002D03*
X185540000Y-90670001D03*
X185540000Y-88470001D03*
%TD*%
D11*
%TO.C,REF\u002A\u002A*%
X109070000Y-49560000D03*
%TD*%
D10*
%TO.C,mouse-bite-2.54mm-slot*%
X198710000Y-60490000D03*
X196510000Y-60490000D03*
X198709999Y-61290000D03*
X196510001Y-61290000D03*
X198710000Y-62090000D03*
X196510000Y-62090000D03*
%TD*%
%TO.C,mouse-bite-2.54mm-slot*%
X167140000Y-90670000D03*
X167140000Y-88470000D03*
X166340000Y-90669999D03*
X166340000Y-88470001D03*
X165540000Y-90670000D03*
X165540000Y-88470000D03*
%TD*%
%TO.C,mouse-bite-2.54mm-slot*%
X124600000Y-90670000D03*
X124600000Y-88470000D03*
X123800000Y-90669999D03*
X123800000Y-88470001D03*
X123000000Y-90670000D03*
X123000000Y-88470000D03*
%TD*%
D11*
%TO.C,REF\u002A\u002A*%
X109070000Y-129580000D03*
%TD*%
D12*
%TO.C,R13*%
X140080000Y-97840001D03*
X140080000Y-98859999D03*
%TD*%
D13*
%TO.C,C3*%
X133298428Y-76788428D03*
X134258428Y-76788428D03*
%TD*%
D14*
%TO.C,C24*%
X129584143Y-74108428D03*
X129584143Y-73148428D03*
%TD*%
D15*
%TO.C,J2*%
X138600000Y-59145000D03*
X138600000Y-56435000D03*
X138200000Y-59145000D03*
X138200000Y-56435000D03*
X137800000Y-59145000D03*
X137800000Y-56435000D03*
X137400000Y-59145000D03*
X137400000Y-56435000D03*
X137000000Y-59145000D03*
X137000000Y-56435000D03*
X136600000Y-59145000D03*
X136600000Y-56435000D03*
X136200000Y-59145000D03*
X136200000Y-56435000D03*
X135800000Y-59145000D03*
X135800000Y-56435000D03*
X135400000Y-59145000D03*
X135400000Y-56435000D03*
X135000000Y-59145000D03*
X135000000Y-56435000D03*
X134600000Y-59145000D03*
X134600000Y-56435000D03*
X134200000Y-59145000D03*
X134200000Y-56435000D03*
X133800000Y-59145000D03*
X133800000Y-56435000D03*
X133400000Y-59145000D03*
X133400000Y-56435000D03*
X133000000Y-59145000D03*
X133000000Y-56435000D03*
X132600000Y-59145000D03*
X132600000Y-56435000D03*
X132200000Y-59145000D03*
X132200000Y-56435000D03*
X131800000Y-59145000D03*
X131800000Y-56435000D03*
X131400000Y-59145000D03*
X131400000Y-56435000D03*
X131000000Y-59145000D03*
X131000000Y-56435000D03*
X130600000Y-59145000D03*
X130600000Y-56435000D03*
X130200000Y-59145000D03*
X130200000Y-56435000D03*
X129800000Y-59145000D03*
X129800000Y-56435000D03*
X129400000Y-59145000D03*
X129400000Y-56435000D03*
X129000000Y-59145000D03*
X129000000Y-56435000D03*
D16*
X139075000Y-59145000D03*
X139075000Y-56435000D03*
X128525000Y-59145000D03*
X128525000Y-56435000D03*
%TD*%
D17*
%TO.C,C21*%
X137968428Y-71428427D03*
X137968428Y-72388427D03*
%TD*%
D13*
%TO.C,C36*%
X177848428Y-76791937D03*
X178808428Y-76791937D03*
%TD*%
%TO.C,C17*%
X130358428Y-68282998D03*
X131318428Y-68282998D03*
%TD*%
D18*
%TO.C,C31*%
X138128428Y-77752588D03*
X137168428Y-77752588D03*
%TD*%
D13*
%TO.C,C3*%
X175838428Y-76788428D03*
X176798428Y-76788428D03*
%TD*%
D15*
%TO.C,J2*%
X181140000Y-59145000D03*
X181140000Y-56435000D03*
X180740000Y-59145000D03*
X180740000Y-56435000D03*
X180340000Y-59145000D03*
X180340000Y-56435000D03*
X179940000Y-59145000D03*
X179940000Y-56435000D03*
X179540000Y-59145000D03*
X179540000Y-56435000D03*
X179140000Y-59145000D03*
X179140000Y-56435000D03*
X178740000Y-59145000D03*
X178740000Y-56435000D03*
X178340000Y-59145000D03*
X178340000Y-56435000D03*
X177940000Y-59145000D03*
X177940000Y-56435000D03*
X177540000Y-59145000D03*
X177540000Y-56435000D03*
X177140000Y-59145000D03*
X177140000Y-56435000D03*
X176740000Y-59145000D03*
X176740000Y-56435000D03*
X176340000Y-59145000D03*
X176340000Y-56435000D03*
X175940000Y-59145000D03*
X175940000Y-56435000D03*
X175540000Y-59145000D03*
X175540000Y-56435000D03*
X175140000Y-59145000D03*
X175140000Y-56435000D03*
X174740000Y-59145000D03*
X174740000Y-56435000D03*
X174340000Y-59145000D03*
X174340000Y-56435000D03*
X173940000Y-59145000D03*
X173940000Y-56435000D03*
X173540000Y-59145000D03*
X173540000Y-56435000D03*
X173140000Y-59145000D03*
X173140000Y-56435000D03*
X172740000Y-59145000D03*
X172740000Y-56435000D03*
X172340000Y-59145000D03*
X172340000Y-56435000D03*
X171940000Y-59145000D03*
X171940000Y-56435000D03*
X171540000Y-59145000D03*
X171540000Y-56435000D03*
D16*
X181615000Y-59145000D03*
X181615000Y-56435000D03*
X171065000Y-59145000D03*
X171065000Y-56435000D03*
%TD*%
D18*
%TO.C,C41*%
X180218428Y-67310428D03*
X179258428Y-67310428D03*
%TD*%
D12*
%TO.C,R13*%
X182620000Y-97845001D03*
X182620000Y-98864999D03*
%TD*%
D18*
%TO.C,C15*%
X133148428Y-67307285D03*
X132188428Y-67307285D03*
%TD*%
D13*
%TO.C,C39*%
X177438428Y-66354428D03*
X178398428Y-66354428D03*
%TD*%
%TO.C,C35*%
X135308428Y-77751286D03*
X136268428Y-77751286D03*
%TD*%
%TO.C,C37*%
X177438428Y-68282428D03*
X178398428Y-68282428D03*
%TD*%
D19*
%TO.C,FB1*%
X140373428Y-70128428D03*
X139023428Y-70128428D03*
%TD*%
D14*
%TO.C,C20*%
X137968428Y-74208427D03*
X137968428Y-73248427D03*
%TD*%
D18*
%TO.C,C4*%
X174918428Y-76791286D03*
X173958428Y-76791286D03*
%TD*%
D13*
%TO.C,C37*%
X134898428Y-68282428D03*
X135858428Y-68282428D03*
%TD*%
D20*
%TO.C,C11*%
X124429214Y-69584214D03*
X122879214Y-69584214D03*
%TD*%
D14*
%TO.C,C29*%
X170212713Y-72268428D03*
X170212713Y-71308428D03*
%TD*%
%TO.C,C26*%
X170218428Y-74108428D03*
X170218428Y-73148428D03*
%TD*%
D18*
%TO.C,C57*%
X127608428Y-68828428D03*
X126648428Y-68828428D03*
%TD*%
D21*
%TO.C,C56*%
X188278428Y-70973428D03*
X188278428Y-72523428D03*
%TD*%
D18*
%TO.C,C13*%
X133148428Y-66340142D03*
X132188428Y-66340142D03*
%TD*%
D20*
%TO.C,C9*%
X166969214Y-71041131D03*
X165419214Y-71041131D03*
%TD*%
D22*
%TO.C,REF\u002A\u002A*%
X186325001Y-129580001D03*
%TD*%
D14*
%TO.C,C25*%
X171171286Y-74108428D03*
X171171286Y-73148428D03*
%TD*%
D22*
%TO.C,REF\u002A\u002A*%
X123815000Y-49559998D03*
%TD*%
D13*
%TO.C,C23*%
X130358428Y-66348714D03*
X131318428Y-66348714D03*
%TD*%
D18*
%TO.C,C14*%
X139000000Y-102000000D03*
X138040000Y-102000000D03*
%TD*%
D14*
%TO.C,C28*%
X171165571Y-72268428D03*
X171165571Y-71308428D03*
%TD*%
D18*
%TO.C,C41*%
X137678428Y-67310428D03*
X136718428Y-67310428D03*
%TD*%
D23*
%TO.C,IC8*%
X180710000Y-100105000D03*
D24*
X180660000Y-99755000D03*
X180660000Y-99405000D03*
X180660000Y-99055000D03*
X181560000Y-99055000D03*
X181560000Y-99405000D03*
X181560000Y-99755000D03*
X181560000Y-100105000D03*
%TD*%
D19*
%TO.C,FB3*%
X170238428Y-70038428D03*
X171588428Y-70038428D03*
%TD*%
D18*
%TO.C,C40*%
X180218428Y-66346428D03*
X179258428Y-66346428D03*
%TD*%
D25*
%TO.C,R8*%
X135334998Y-102025000D03*
X134315000Y-102025000D03*
%TD*%
D14*
%TO.C,C20*%
X180508428Y-74208427D03*
X180508428Y-73248427D03*
%TD*%
D13*
%TO.C,C35*%
X177848428Y-77751286D03*
X178808428Y-77751286D03*
%TD*%
D18*
%TO.C,C16*%
X133148428Y-68274428D03*
X132188428Y-68274428D03*
%TD*%
D13*
%TO.C,C36*%
X135308428Y-76791937D03*
X136268428Y-76791937D03*
%TD*%
%TO.C,C1*%
X133298428Y-78731285D03*
X134258428Y-78731285D03*
%TD*%
D26*
%TO.C,R9*%
X132555001Y-102965001D03*
X133574999Y-102965001D03*
%TD*%
D20*
%TO.C,C10*%
X166969214Y-72498048D03*
X165419214Y-72498048D03*
%TD*%
D18*
%TO.C,C31*%
X180668428Y-77752588D03*
X179708428Y-77752588D03*
%TD*%
D17*
%TO.C,C8*%
X182448428Y-71428427D03*
X182448428Y-72388427D03*
%TD*%
D13*
%TO.C,C22*%
X172898428Y-67315856D03*
X173858428Y-67315856D03*
%TD*%
D12*
%TO.C,R2*%
X174665000Y-99960001D03*
X174665000Y-100979999D03*
%TD*%
D21*
%TO.C,C56*%
X145738428Y-70973428D03*
X145738428Y-72523428D03*
%TD*%
D18*
%TO.C,C6*%
X132378428Y-78734142D03*
X131418428Y-78734142D03*
%TD*%
D14*
%TO.C,C27*%
X172118429Y-72268428D03*
X172118429Y-71308428D03*
%TD*%
D17*
%TO.C,C21*%
X180508428Y-71428427D03*
X180508428Y-72388427D03*
%TD*%
D13*
%TO.C,C59*%
X140473428Y-68918428D03*
X141433428Y-68918428D03*
%TD*%
D18*
%TO.C,C42*%
X180218428Y-68274428D03*
X179258428Y-68274428D03*
%TD*%
D27*
%TO.C,R16*%
X136060000Y-100619997D03*
X136060000Y-99599999D03*
%TD*%
D18*
%TO.C,C6*%
X174918428Y-78734142D03*
X173958428Y-78734142D03*
%TD*%
%TO.C,C58*%
X139613428Y-68918428D03*
X138653428Y-68918428D03*
%TD*%
D26*
%TO.C,R12*%
X138010001Y-101050000D03*
X139029999Y-101050000D03*
%TD*%
D23*
%TO.C,IC8*%
X138170000Y-100100000D03*
D24*
X138120000Y-99750000D03*
X138120000Y-99400000D03*
X138120000Y-99050000D03*
X139020000Y-99050000D03*
X139020000Y-99400000D03*
X139020000Y-99750000D03*
X139020000Y-100100000D03*
%TD*%
D18*
%TO.C,C32*%
X180668428Y-78711937D03*
X179708428Y-78711937D03*
%TD*%
D13*
%TO.C,C34*%
X135308428Y-78710636D03*
X136268428Y-78710636D03*
%TD*%
D19*
%TO.C,FB3*%
X127698428Y-70038428D03*
X129048428Y-70038428D03*
%TD*%
D18*
%TO.C,C42*%
X137678428Y-68274428D03*
X136718428Y-68274428D03*
%TD*%
D17*
%TO.C,C7*%
X181478428Y-71428427D03*
X181478428Y-72388427D03*
%TD*%
D25*
%TO.C,R8*%
X177874998Y-102030000D03*
X176855000Y-102030000D03*
%TD*%
D15*
%TO.C,J2*%
X138600000Y-95700000D03*
X138600000Y-92990000D03*
X138200000Y-95700000D03*
X138200000Y-92990000D03*
X137800000Y-95700000D03*
X137800000Y-92990000D03*
X137400000Y-95700000D03*
X137400000Y-92990000D03*
X137000000Y-95700000D03*
X137000000Y-92990000D03*
X136600000Y-95700000D03*
X136600000Y-92990000D03*
X136200000Y-95700000D03*
X136200000Y-92990000D03*
X135800000Y-95700000D03*
X135800000Y-92990000D03*
X135400000Y-95700000D03*
X135400000Y-92990000D03*
X135000000Y-95700000D03*
X135000000Y-92990000D03*
X134600000Y-95700000D03*
X134600000Y-92990000D03*
X134200000Y-95700000D03*
X134200000Y-92990000D03*
X133800000Y-95700000D03*
X133800000Y-92990000D03*
X133400000Y-95700000D03*
X133400000Y-92990000D03*
X133000000Y-95700000D03*
X133000000Y-92990000D03*
X132600000Y-95700000D03*
X132600000Y-92990000D03*
X132200000Y-95700000D03*
X132200000Y-92990000D03*
X131800000Y-95700000D03*
X131800000Y-92990000D03*
X131400000Y-95700000D03*
X131400000Y-92990000D03*
X131000000Y-95700000D03*
X131000000Y-92990000D03*
X130600000Y-95700000D03*
X130600000Y-92990000D03*
X130200000Y-95700000D03*
X130200000Y-92990000D03*
X129800000Y-95700000D03*
X129800000Y-92990000D03*
X129400000Y-95700000D03*
X129400000Y-92990000D03*
X129000000Y-95700000D03*
X129000000Y-92990000D03*
D16*
X139075000Y-95700000D03*
X139075000Y-92990000D03*
X128525000Y-95700000D03*
X128525000Y-92990000D03*
%TD*%
D13*
%TO.C,C38*%
X177438428Y-67318428D03*
X178398428Y-67318428D03*
%TD*%
%TO.C,C55*%
X171008428Y-68828428D03*
X171968428Y-68828428D03*
%TD*%
D28*
%TO.C,IC2*%
X175615000Y-100120000D03*
D29*
X175965000Y-100070000D03*
X176315000Y-100070000D03*
X176665000Y-100070000D03*
X176665000Y-100970000D03*
X176315000Y-100970000D03*
X175965000Y-100970000D03*
X175615000Y-100970000D03*
%TD*%
D18*
%TO.C,C32*%
X138128428Y-78711937D03*
X137168428Y-78711937D03*
%TD*%
D12*
%TO.C,R15*%
X137000000Y-97840001D03*
X137000000Y-98859999D03*
%TD*%
D18*
%TO.C,C30*%
X138128428Y-76793238D03*
X137168428Y-76793238D03*
%TD*%
%TO.C,C40*%
X137678428Y-66346428D03*
X136718428Y-66346428D03*
%TD*%
D17*
%TO.C,C7*%
X138938428Y-71428427D03*
X138938428Y-72388427D03*
%TD*%
D21*
%TO.C,C54*%
X144278428Y-70973428D03*
X144278428Y-72523428D03*
%TD*%
D19*
%TO.C,FB1*%
X182913428Y-70128428D03*
X181563428Y-70128428D03*
%TD*%
D20*
%TO.C,C12*%
X166969214Y-68127298D03*
X165419214Y-68127298D03*
%TD*%
D12*
%TO.C,R2*%
X132125000Y-99955001D03*
X132125000Y-100974999D03*
%TD*%
D14*
%TO.C,C13*%
X173715000Y-100950000D03*
X173715000Y-99990000D03*
%TD*%
%TO.C,C24*%
X172124143Y-74108428D03*
X172124143Y-73148428D03*
%TD*%
D13*
%TO.C,C2*%
X133298428Y-77759856D03*
X134258428Y-77759856D03*
%TD*%
D18*
%TO.C,C33*%
X138128428Y-79671287D03*
X137168428Y-79671287D03*
%TD*%
D13*
%TO.C,C23*%
X172898428Y-66348714D03*
X173858428Y-66348714D03*
%TD*%
D14*
%TO.C,C26*%
X127678428Y-74108428D03*
X127678428Y-73148428D03*
%TD*%
D13*
%TO.C,C34*%
X177848428Y-78710636D03*
X178808428Y-78710636D03*
%TD*%
D18*
%TO.C,C58*%
X182153428Y-68918428D03*
X181193428Y-68918428D03*
%TD*%
D27*
%TO.C,R16*%
X178600000Y-100624997D03*
X178600000Y-99604999D03*
%TD*%
D20*
%TO.C,C9*%
X124429214Y-71041131D03*
X122879214Y-71041131D03*
%TD*%
D12*
%TO.C,R15*%
X179540000Y-97845001D03*
X179540000Y-98864999D03*
%TD*%
D13*
%TO.C,C1*%
X175838428Y-78731285D03*
X176798428Y-78731285D03*
%TD*%
%TO.C,C55*%
X128468428Y-68828428D03*
X129428428Y-68828428D03*
%TD*%
%TO.C,C17*%
X172898428Y-68282998D03*
X173858428Y-68282998D03*
%TD*%
D14*
%TO.C,C18*%
X182448428Y-74208427D03*
X182448428Y-73248427D03*
%TD*%
D21*
%TO.C,C54*%
X186818428Y-70973428D03*
X186818428Y-72523428D03*
%TD*%
D18*
%TO.C,C4*%
X132378428Y-76791286D03*
X131418428Y-76791286D03*
%TD*%
D14*
%TO.C,C25*%
X128631286Y-74108428D03*
X128631286Y-73148428D03*
%TD*%
D13*
%TO.C,C38*%
X134898428Y-67318428D03*
X135858428Y-67318428D03*
%TD*%
D26*
%TO.C,R12*%
X180550001Y-101055000D03*
X181569999Y-101055000D03*
%TD*%
D18*
%TO.C,C5*%
X132378428Y-77762713D03*
X131418428Y-77762713D03*
%TD*%
D22*
%TO.C,REF\u002A\u002A*%
X186325000Y-49559999D03*
%TD*%
D18*
%TO.C,C16*%
X175688428Y-68274428D03*
X174728428Y-68274428D03*
%TD*%
%TO.C,C33*%
X180668428Y-79671287D03*
X179708428Y-79671287D03*
%TD*%
D20*
%TO.C,C12*%
X124429214Y-68127298D03*
X122879214Y-68127298D03*
%TD*%
D13*
%TO.C,C2*%
X175838428Y-77759856D03*
X176798428Y-77759856D03*
%TD*%
D14*
%TO.C,C18*%
X139908428Y-74208427D03*
X139908428Y-73248427D03*
%TD*%
%TO.C,C28*%
X128625571Y-72268428D03*
X128625571Y-71308428D03*
%TD*%
D17*
%TO.C,C8*%
X139908428Y-71428427D03*
X139908428Y-72388427D03*
%TD*%
D27*
%TO.C,R14*%
X183560000Y-100625000D03*
X183560000Y-99605002D03*
%TD*%
D18*
%TO.C,C30*%
X180668428Y-76793238D03*
X179708428Y-76793238D03*
%TD*%
D20*
%TO.C,C11*%
X166969214Y-69584214D03*
X165419214Y-69584214D03*
%TD*%
D13*
%TO.C,C59*%
X183013428Y-68918428D03*
X183973428Y-68918428D03*
%TD*%
D14*
%TO.C,C29*%
X127672713Y-72268428D03*
X127672713Y-71308428D03*
%TD*%
D30*
%TO.C,C53*%
X142398428Y-70273427D03*
X142398428Y-73223429D03*
%TD*%
D13*
%TO.C,C22*%
X130358428Y-67315856D03*
X131318428Y-67315856D03*
%TD*%
D22*
%TO.C,REF\u002A\u002A*%
X123815001Y-129580000D03*
%TD*%
D31*
%TO.C,C14*%
X125129215Y-66250381D03*
X122179213Y-66250381D03*
%TD*%
%TO.C,C14*%
X167669215Y-66250381D03*
X164719213Y-66250381D03*
%TD*%
D18*
%TO.C,C14*%
X181540000Y-102005000D03*
X180580000Y-102005000D03*
%TD*%
D14*
%TO.C,C19*%
X138938428Y-74208428D03*
X138938428Y-73248428D03*
%TD*%
D18*
%TO.C,C15*%
X175688428Y-67307285D03*
X174728428Y-67307285D03*
%TD*%
D28*
%TO.C,IC2*%
X133075000Y-100115000D03*
D29*
X133425000Y-100065000D03*
X133775000Y-100065000D03*
X134125000Y-100065000D03*
X134125000Y-100965000D03*
X133775000Y-100965000D03*
X133425000Y-100965000D03*
X133075000Y-100965000D03*
%TD*%
D14*
%TO.C,C19*%
X181478428Y-74208428D03*
X181478428Y-73248428D03*
%TD*%
D18*
%TO.C,C13*%
X175688428Y-66340142D03*
X174728428Y-66340142D03*
%TD*%
%TO.C,C5*%
X174918428Y-77762713D03*
X173958428Y-77762713D03*
%TD*%
D14*
%TO.C,C27*%
X129578429Y-72268428D03*
X129578429Y-71308428D03*
%TD*%
D13*
%TO.C,C39*%
X134898428Y-66354428D03*
X135858428Y-66354428D03*
%TD*%
D14*
%TO.C,C13*%
X131175000Y-100945000D03*
X131175000Y-99985000D03*
%TD*%
D30*
%TO.C,C53*%
X184938428Y-70273427D03*
X184938428Y-73223429D03*
%TD*%
D27*
%TO.C,R14*%
X141020000Y-100620000D03*
X141020000Y-99600002D03*
%TD*%
D15*
%TO.C,J2*%
X181140000Y-95705000D03*
X181140000Y-92995000D03*
X180740000Y-95705000D03*
X180740000Y-92995000D03*
X180340000Y-95705000D03*
X180340000Y-92995000D03*
X179940000Y-95705000D03*
X179940000Y-92995000D03*
X179540000Y-95705000D03*
X179540000Y-92995000D03*
X179140000Y-95705000D03*
X179140000Y-92995000D03*
X178740000Y-95705000D03*
X178740000Y-92995000D03*
X178340000Y-95705000D03*
X178340000Y-92995000D03*
X177940000Y-95705000D03*
X177940000Y-92995000D03*
X177540000Y-95705000D03*
X177540000Y-92995000D03*
X177140000Y-95705000D03*
X177140000Y-92995000D03*
X176740000Y-95705000D03*
X176740000Y-92995000D03*
X176340000Y-95705000D03*
X176340000Y-92995000D03*
X175940000Y-95705000D03*
X175940000Y-92995000D03*
X175540000Y-95705000D03*
X175540000Y-92995000D03*
X175140000Y-95705000D03*
X175140000Y-92995000D03*
X174740000Y-95705000D03*
X174740000Y-92995000D03*
X174340000Y-95705000D03*
X174340000Y-92995000D03*
X173940000Y-95705000D03*
X173940000Y-92995000D03*
X173540000Y-95705000D03*
X173540000Y-92995000D03*
X173140000Y-95705000D03*
X173140000Y-92995000D03*
X172740000Y-95705000D03*
X172740000Y-92995000D03*
X172340000Y-95705000D03*
X172340000Y-92995000D03*
X171940000Y-95705000D03*
X171940000Y-92995000D03*
X171540000Y-95705000D03*
X171540000Y-92995000D03*
D16*
X181615000Y-95705000D03*
X181615000Y-92995000D03*
X171065000Y-95705000D03*
X171065000Y-92995000D03*
%TD*%
D20*
%TO.C,C10*%
X124429214Y-72498048D03*
X122879214Y-72498048D03*
%TD*%
D18*
%TO.C,C57*%
X170148428Y-68828428D03*
X169188428Y-68828428D03*
%TD*%
D26*
%TO.C,R9*%
X175095001Y-102970001D03*
X176114999Y-102970001D03*
%TD*%
M02*
