%TF.GenerationSoftware,KiCad,Pcbnew,9.0.6-9.0.6~ubuntu22.04.1*%
%TF.CreationDate,2026-03-20T15:24:08+01:00*%
%TF.ProjectId,PanelBrainSensor,50616e65-6c42-4726-9169-6e53656e736f,rev?*%
%TF.SameCoordinates,Original*%
%TF.FileFunction,Profile,NP*%
%FSLAX46Y46*%
G04 Gerber Fmt 4.6, Leading zero omitted, Abs format (unit mm)*
G04 Created by KiCad (PCBNEW 9.0.6-9.0.6~ubuntu22.04.1) date 2026-03-20 15:24:08*
%MOMM*%
%LPD*%
G01*
G04 APERTURE LIST*
%TA.AperFunction,Profile*%
%ADD10C,0.150000*%
%TD*%
G04 APERTURE END LIST*
D10*
X184010000Y-127390000D02*
X168669999Y-127390000D01*
X113799999Y-92845000D02*
G75*
G02*
X115799999Y-90844999I2000001J0D01*
G01*
X111260001Y-78960000D02*
X111260001Y-63620000D01*
X194877392Y-51745953D02*
G75*
G02*
X198879948Y-55745952I2608J-3999947D01*
G01*
X188670000Y-51750000D02*
X194877392Y-51745953D01*
X111260000Y-55745952D02*
G75*
G02*
X115262608Y-51745951I4000000J2D01*
G01*
X151800001Y-90845000D02*
X146130000Y-90840000D01*
X168670000Y-51750000D02*
X184010000Y-51750000D01*
X158340000Y-88290000D02*
G75*
G02*
X156340000Y-86290000I0J2000000D01*
G01*
X111260000Y-58960000D02*
X111260000Y-55745952D01*
X121470000Y-127390000D02*
X115262608Y-127394047D01*
X153800000Y-86290000D02*
X153800000Y-83625000D01*
X158340000Y-124850000D02*
X164010000Y-124850000D01*
X164010000Y-88300000D02*
X158340000Y-88290000D01*
X198880000Y-83620000D02*
X198880000Y-95520000D01*
X153799999Y-95520000D02*
X153800000Y-92845000D01*
X158340000Y-54290000D02*
X164010000Y-54290000D01*
X109070000Y-133579999D02*
G75*
G02*
X105070001Y-129579999I0J3999999D01*
G01*
X151800001Y-90845000D02*
G75*
G02*
X153800000Y-92845000I-1J-2000000D01*
G01*
X198880000Y-123395000D02*
G75*
G02*
X194880000Y-127395000I-4000000J0D01*
G01*
X164010000Y-51750000D02*
X146130000Y-51750000D01*
X115262608Y-127394047D02*
G75*
G02*
X111259952Y-123394048I-2608J4000047D01*
G01*
X151800000Y-54290000D02*
X146130000Y-54290000D01*
X196340000Y-122850000D02*
X196340000Y-120180000D01*
X126130000Y-51750000D02*
X141470000Y-51750000D01*
X113800000Y-100175000D02*
X113800000Y-115515000D01*
X105070000Y-49560000D02*
G75*
G02*
X109070000Y-45560000I4000000J0D01*
G01*
X196340000Y-86290000D02*
G75*
G02*
X194340000Y-88290000I-2000000J0D01*
G01*
X153800000Y-122845000D02*
G75*
G02*
X151800000Y-124845000I-2000000J0D01*
G01*
X194340000Y-88290000D02*
X188670000Y-88299999D01*
X153800000Y-122845000D02*
X153799999Y-120180000D01*
X194340000Y-54290000D02*
G75*
G02*
X196340000Y-56290000I0J-2000000D01*
G01*
X188670000Y-124850000D02*
X194340000Y-124850000D01*
X126130000Y-90840000D02*
X141470000Y-90840000D01*
X156339999Y-92850000D02*
G75*
G02*
X158339999Y-90849999I2000001J0D01*
G01*
X158340000Y-124850000D02*
G75*
G02*
X156340000Y-122850000I0J2000000D01*
G01*
X146130000Y-124850000D02*
X151800000Y-124845000D01*
X153799999Y-115520000D02*
X153799999Y-100180000D01*
X146130000Y-88300000D02*
X151800000Y-88290000D01*
X126130000Y-124849999D02*
X141470000Y-124850000D01*
X201070002Y-133579999D02*
X109070000Y-133579999D01*
X198880000Y-55745952D02*
X198880000Y-58960000D01*
X198880000Y-123395000D02*
X198880000Y-120180000D01*
X113800000Y-56290000D02*
X113800000Y-58960000D01*
X113800000Y-120175000D02*
X113800000Y-122845000D01*
X113800000Y-63620000D02*
X113800000Y-78960000D01*
X111260000Y-115515000D02*
X111260000Y-100175000D01*
X188665000Y-127395000D02*
X194880000Y-127395000D01*
X168670000Y-124850000D02*
X184010000Y-124850000D01*
X194340001Y-90850000D02*
G75*
G02*
X196340000Y-92850000I-1J-2000000D01*
G01*
X196340000Y-83620000D02*
X196340000Y-86290000D01*
X111260000Y-83620000D02*
X111260000Y-95515000D01*
X141470000Y-54290000D02*
X126130000Y-54290000D01*
X156339999Y-92850000D02*
X156339999Y-95520000D01*
X153800000Y-78965000D02*
X153800000Y-63625000D01*
X121470000Y-54290000D02*
X115800000Y-54290000D01*
X115800000Y-124845000D02*
G75*
G02*
X113800000Y-122845000I0J2000000D01*
G01*
X111260000Y-123394048D02*
X111260000Y-120175000D01*
X184010000Y-88300001D02*
X168670000Y-88300000D01*
X205070002Y-129579999D02*
G75*
G02*
X201070002Y-133580002I-4000002J-1D01*
G01*
X153800000Y-58965000D02*
X153800000Y-56290000D01*
X188670000Y-54290000D02*
X194340000Y-54290000D01*
X156339999Y-120180000D02*
X156340000Y-122850000D01*
X196340000Y-63620000D02*
X196340000Y-78960000D01*
X196340000Y-122850000D02*
G75*
G02*
X194340000Y-124850000I-2000000J0D01*
G01*
X168670000Y-54290000D02*
X184010000Y-54290000D01*
X156340000Y-56290000D02*
G75*
G02*
X158340000Y-54290000I2000000J0D01*
G01*
X198879999Y-100180000D02*
X198879999Y-115520000D01*
X198880000Y-63620000D02*
X198880000Y-78960000D01*
X201070000Y-45560000D02*
G75*
G02*
X205070000Y-49560000I0J-4000000D01*
G01*
X126130000Y-88300000D02*
X141470000Y-88300000D01*
X121470000Y-90840000D02*
X115799999Y-90840000D01*
X115800000Y-88290000D02*
G75*
G02*
X113800000Y-86290000I0J2000000D01*
G01*
X164010000Y-90840000D02*
X158339999Y-90850000D01*
X205070002Y-49560000D02*
X205070002Y-129579999D01*
X113799999Y-92845000D02*
X113800000Y-95515000D01*
X121470000Y-51750000D02*
X115262608Y-51745953D01*
X156339999Y-100180000D02*
X156339999Y-115520000D01*
X156340000Y-78965000D02*
X156340000Y-63625000D01*
X113800000Y-83620000D02*
X113800000Y-86290000D01*
X105070000Y-129579999D02*
X105070000Y-49560000D01*
X184010000Y-90840001D02*
X168670000Y-90840000D01*
X141470000Y-127390000D02*
X126130000Y-127389999D01*
X151800000Y-54290000D02*
G75*
G02*
X153800000Y-56290000I0J-2000000D01*
G01*
X196340000Y-95520000D02*
X196340000Y-92850000D01*
X115800000Y-124845000D02*
X121470000Y-124849999D01*
X194340000Y-90850000D02*
X188670000Y-90840001D01*
X196340000Y-115520000D02*
X196340000Y-100180000D01*
X109070000Y-45560000D02*
X201070000Y-45560000D01*
X156340000Y-58965000D02*
X156340000Y-56290000D01*
X113800000Y-56290000D02*
G75*
G02*
X115800000Y-54290000I2000000J0D01*
G01*
X153800000Y-86290000D02*
G75*
G02*
X151800000Y-88290000I-2000000J0D01*
G01*
X146130001Y-127390000D02*
X164010000Y-127390000D01*
X196340000Y-56290000D02*
X196340000Y-58960000D01*
X156340000Y-86290000D02*
X156340000Y-83625000D01*
X115800000Y-88290000D02*
X121470000Y-88300000D01*
%TO.C,mouse-bite-2.54mm-slot*%
X121470000Y-124849999D02*
G75*
G02*
X121470000Y-127389999I0J-1270000D01*
G01*
X126130000Y-127389999D02*
G75*
G02*
X126130000Y-124849999I0J1270000D01*
G01*
X111260000Y-83620000D02*
G75*
G02*
X113800000Y-83620000I1270000J0D01*
G01*
X113800000Y-78960000D02*
G75*
G02*
X111260000Y-78960000I-1270000J0D01*
G01*
X153799999Y-120180000D02*
G75*
G02*
X156339999Y-120180000I1270000J0D01*
G01*
X156339999Y-115520000D02*
G75*
G02*
X153799999Y-115520000I-1270000J0D01*
G01*
X111260000Y-120175000D02*
G75*
G02*
X113800000Y-120175000I1270000J0D01*
G01*
X113800000Y-115515000D02*
G75*
G02*
X111260000Y-115515000I-1270000J0D01*
G01*
X141470000Y-51750000D02*
G75*
G02*
X141470000Y-54290000I0J-1270000D01*
G01*
X146130000Y-54290000D02*
G75*
G02*
X146130000Y-51750000I0J1270000D01*
G01*
X141470000Y-88300000D02*
G75*
G02*
X141470000Y-90840000I0J-1270000D01*
G01*
X146130000Y-90840000D02*
G75*
G02*
X146130000Y-88300000I0J1270000D01*
G01*
X153799999Y-100180000D02*
G75*
G02*
X156339999Y-100180000I1270000J0D01*
G01*
X156339999Y-95520000D02*
G75*
G02*
X153799999Y-95520000I-1270000J0D01*
G01*
X153800000Y-83625000D02*
G75*
G02*
X156340000Y-83625000I1270000J0D01*
G01*
X156340000Y-78965000D02*
G75*
G02*
X153800000Y-78965000I-1270000J0D01*
G01*
X111260000Y-100175000D02*
G75*
G02*
X113800000Y-100175000I1270000J0D01*
G01*
X113800000Y-95515000D02*
G75*
G02*
X111260000Y-95515000I-1270000J0D01*
G01*
X184010000Y-51750000D02*
G75*
G02*
X184010000Y-54290000I0J-1270000D01*
G01*
X188670000Y-54290000D02*
G75*
G02*
X188670000Y-51750000I0J1270000D01*
G01*
X153800000Y-63625000D02*
G75*
G02*
X156340000Y-63625000I1270000J0D01*
G01*
X156340000Y-58965000D02*
G75*
G02*
X153800000Y-58965000I-1270000J0D01*
G01*
X164010000Y-124850000D02*
G75*
G02*
X164010000Y-127390000I0J-1270000D01*
G01*
X168670000Y-127390000D02*
G75*
G02*
X168670000Y-124850000I0J1270000D01*
G01*
X111260000Y-63620000D02*
G75*
G02*
X113800000Y-63620000I1270000J0D01*
G01*
X113800000Y-58960000D02*
G75*
G02*
X111260000Y-58960000I-1270000J0D01*
G01*
X196340000Y-83620000D02*
G75*
G02*
X198880000Y-83620000I1270000J0D01*
G01*
X198880000Y-78960000D02*
G75*
G02*
X196340000Y-78960000I-1270000J0D01*
G01*
X141470000Y-124850000D02*
G75*
G02*
X141470000Y-127390000I0J-1270000D01*
G01*
X146130000Y-127390000D02*
G75*
G02*
X146130000Y-124850000I0J1270000D01*
G01*
X121470000Y-51750000D02*
G75*
G02*
X121470000Y-54290000I0J-1270000D01*
G01*
X126130000Y-54290000D02*
G75*
G02*
X126130000Y-51750000I0J1270000D01*
G01*
X164010000Y-51750000D02*
G75*
G02*
X164010000Y-54290000I0J-1270000D01*
G01*
X168670000Y-54290000D02*
G75*
G02*
X168670000Y-51750000I0J1270000D01*
G01*
X184010000Y-124850000D02*
G75*
G02*
X184010000Y-127390000I0J-1270000D01*
G01*
X188670000Y-127390000D02*
G75*
G02*
X188670000Y-124850000I0J1270000D01*
G01*
X196340000Y-100180000D02*
G75*
G02*
X198880000Y-100180000I1270000J0D01*
G01*
X198880000Y-95520000D02*
G75*
G02*
X196340000Y-95520000I-1270000J0D01*
G01*
X196340000Y-120180000D02*
G75*
G02*
X198880000Y-120180000I1270000J0D01*
G01*
X198880000Y-115520000D02*
G75*
G02*
X196340000Y-115520000I-1270000J0D01*
G01*
X184010000Y-88300001D02*
G75*
G02*
X184010000Y-90840001I0J-1270000D01*
G01*
X188670000Y-90840001D02*
G75*
G02*
X188670000Y-88300001I0J1270000D01*
G01*
X196340000Y-63620000D02*
G75*
G02*
X198880000Y-63620000I1270000J0D01*
G01*
X198880000Y-58960000D02*
G75*
G02*
X196340000Y-58960000I-1270000J0D01*
G01*
X164010000Y-88300000D02*
G75*
G02*
X164010000Y-90840000I0J-1270000D01*
G01*
X168670000Y-90840000D02*
G75*
G02*
X168670000Y-88300000I0J1270000D01*
G01*
X121470000Y-88300000D02*
G75*
G02*
X121470000Y-90840000I0J-1270000D01*
G01*
X126130000Y-90840000D02*
G75*
G02*
X126130000Y-88300000I0J1270000D01*
G01*
%TD*%
M02*
