<svg xmlns="http://www.w3.org/2000/svg" width="1400" height="1000" viewBox="0 0 1400 1000">
<rect width="100%" height="100%" fill="#fbfcfe" />
<rect x="50" y="76" width="1300" height="874" fill="#ffffff" stroke="#cfd7e3" stroke-width="1.2" />
<text x="50" y="28" font-size="20" font-family="monospace" fill="#111827">KiCad POS Preview</text>
<text x="50" y="48" font-size="12" font-family="monospace" fill="#3f4956">source: bridge_intf_back/PanelBridgeInterface-bottom.pos</text>
<text x="50" y="64" font-size="12" font-family="monospace" fill="#3f4956">anchor: REF** at (0.0000, 0.0000) mm | output: bridge_intf_back/PanelBridgeInterface-bottom_preview.svg</text>
<line x1="50.00" y1="76.00" x2="50.00" y2="950.00" stroke="#e7ecf3" stroke-width="1" />
<line x1="169.25" y1="76.00" x2="169.25" y2="950.00" stroke="#e7ecf3" stroke-width="1" />
<line x1="288.50" y1="76.00" x2="288.50" y2="950.00" stroke="#e7ecf3" stroke-width="1" />
<line x1="407.76" y1="76.00" x2="407.76" y2="950.00" stroke="#e7ecf3" stroke-width="1" />
<line x1="527.01" y1="76.00" x2="527.01" y2="950.00" stroke="#e7ecf3" stroke-width="1" />
<line x1="646.26" y1="76.00" x2="646.26" y2="950.00" stroke="#e7ecf3" stroke-width="1" />
<line x1="765.51" y1="76.00" x2="765.51" y2="950.00" stroke="#e7ecf3" stroke-width="1" />
<line x1="884.77" y1="76.00" x2="884.77" y2="950.00" stroke="#e7ecf3" stroke-width="1" />
<line x1="1004.02" y1="76.00" x2="1004.02" y2="950.00" stroke="#e7ecf3" stroke-width="1" />
<line x1="50.00" y1="950.00" x2="1350.00" y2="950.00" stroke="#e7ecf3" stroke-width="1" />
<line x1="50.00" y1="830.75" x2="1350.00" y2="830.75" stroke="#e7ecf3" stroke-width="1" />
<line x1="50.00" y1="711.50" x2="1350.00" y2="711.50" stroke="#e7ecf3" stroke-width="1" />
<line x1="50.00" y1="592.24" x2="1350.00" y2="592.24" stroke="#e7ecf3" stroke-width="1" />
<line x1="50.00" y1="472.99" x2="1350.00" y2="472.99" stroke="#e7ecf3" stroke-width="1" />
<line x1="50.00" y1="353.74" x2="1350.00" y2="353.74" stroke="#e7ecf3" stroke-width="1" />
<line x1="50.00" y1="234.49" x2="1350.00" y2="234.49" stroke="#e7ecf3" stroke-width="1" />
<line x1="50.00" y1="115.23" x2="1350.00" y2="115.23" stroke="#e7ecf3" stroke-width="1" />
<line x1="50.00" y1="76.00" x2="50.00" y2="950.00" stroke="#0f1720" stroke-width="1.6" />
<line x1="50.00" y1="950.00" x2="1350.00" y2="950.00" stroke="#0f1720" stroke-width="1.6" />
<circle cx="50.00" cy="950.00" r="4.5" fill="#ffffff" stroke="#0f1720" stroke-width="1.4" />
<g><title>REF** | Fiducial_1mm_Mask2mm | Fiducial_1mm_Mask2mm | (0.0000, 0.0000) mm | 0.0 deg</title><circle cx="50.00" cy="950.00" r="5.96" fill="#111111" opacity="0.9" /></g>
<g><title>C1 | 4.7uF | C_0603_1608Metric | (41.9350, 53.3650) mm | 0.0 deg</title><rect x="540.54" y="308.84" width="19.08" height="9.54" rx="2" ry="2" fill="#2f6fdd" opacity="0.72" stroke="#243040" stroke-width="0.8" transform="rotate(0.00 550.08 313.61)" /></g>
<g><title>C1 | 4.7uF | C_0603_1608Metric | (-0.6050, 53.3650) mm | 0.0 deg</title><rect x="33.25" y="308.84" width="19.08" height="9.54" rx="2" ry="2" fill="#2f6fdd" opacity="0.72" stroke="#243040" stroke-width="0.8" transform="rotate(0.00 42.79 313.61)" /></g>
<g><title>C2 | 100n | C_0402_1005Metric | (56.6850, 50.8000) mm | 90.0 deg</title><rect x="720.02" y="341.22" width="11.93" height="5.96" rx="2" ry="2" fill="#2f6fdd" opacity="0.72" stroke="#243040" stroke-width="0.8" transform="rotate(90.00 725.98 344.20)" /></g>
<g><title>C2 | 100n | C_0402_1005Metric | (14.1450, 50.8000) mm | 90.0 deg</title><rect x="212.72" y="341.22" width="11.93" height="5.96" rx="2" ry="2" fill="#2f6fdd" opacity="0.72" stroke="#243040" stroke-width="0.8" transform="rotate(90.00 218.68 344.20)" /></g>
<g><title>C3 | 100n | C_0402_1005Metric | (12.3050, 50.8000) mm | 90.0 deg</title><rect x="190.78" y="341.22" width="11.93" height="5.96" rx="2" ry="2" fill="#2f6fdd" opacity="0.72" stroke="#243040" stroke-width="0.8" transform="rotate(90.00 196.74 344.20)" /></g>
<g><title>C3 | 100n | C_0402_1005Metric | (54.8450, 50.8000) mm | 90.0 deg</title><rect x="698.08" y="341.22" width="11.93" height="5.96" rx="2" ry="2" fill="#2f6fdd" opacity="0.72" stroke="#243040" stroke-width="0.8" transform="rotate(90.00 704.04 344.20)" /></g>
<g><title>C5 | 100n | C_0402_1005Metric | (59.0450, 50.5700) mm | -90.0 deg</title><rect x="748.16" y="343.96" width="11.93" height="5.96" rx="2" ry="2" fill="#2f6fdd" opacity="0.72" stroke="#243040" stroke-width="0.8" transform="rotate(-90.00 754.13 346.94)" /></g>
<g><title>C5 | 100n | C_0402_1005Metric | (16.5050, 50.5700) mm | -90.0 deg</title><rect x="240.86" y="343.96" width="11.93" height="5.96" rx="2" ry="2" fill="#2f6fdd" opacity="0.72" stroke="#243040" stroke-width="0.8" transform="rotate(-90.00 246.83 346.94)" /></g>
<g><title>C6 | 100nF | C_0402_1005Metric | (41.9400, 54.6400) mm | 0.0 deg</title><rect x="544.18" y="295.42" width="11.93" height="5.96" rx="2" ry="2" fill="#2f6fdd" opacity="0.72" stroke="#243040" stroke-width="0.8" transform="rotate(0.00 550.14 298.41)" /></g>
<g><title>C6 | 100nF | C_0402_1005Metric | (-0.6000, 54.6400) mm | 0.0 deg</title><rect x="36.88" y="295.42" width="11.93" height="5.96" rx="2" ry="2" fill="#2f6fdd" opacity="0.72" stroke="#243040" stroke-width="0.8" transform="rotate(0.00 42.84 298.41)" /></g>
<g><title>C8 | 100n | C_0402_1005Metric | (14.5750, 58.4800) mm | 0.0 deg</title><rect x="217.85" y="249.63" width="11.93" height="5.96" rx="2" ry="2" fill="#2f6fdd" opacity="0.72" stroke="#243040" stroke-width="0.8" transform="rotate(0.00 223.81 252.61)" /></g>
<g><title>C8 | 100n | C_0402_1005Metric | (57.1150, 58.4800) mm | 0.0 deg</title><rect x="725.15" y="249.63" width="11.93" height="5.96" rx="2" ry="2" fill="#2f6fdd" opacity="0.72" stroke="#243040" stroke-width="0.8" transform="rotate(0.00 731.11 252.61)" /></g>
<g><title>C9 | 100nF | C_0402_1005Metric | (-3.9550, 53.0100) mm | 0.0 deg</title><rect x="-3.13" y="314.86" width="11.93" height="5.96" rx="2" ry="2" fill="#2f6fdd" opacity="0.72" stroke="#243040" stroke-width="0.8" transform="rotate(0.00 2.84 317.84)" /></g>
<g><title>C9 | 100nF | C_0402_1005Metric | (38.5850, 53.0100) mm | 0.0 deg</title><rect x="504.17" y="314.86" width="11.93" height="5.96" rx="2" ry="2" fill="#2f6fdd" opacity="0.72" stroke="#243040" stroke-width="0.8" transform="rotate(0.00 510.13 317.84)" /></g>
<g><title>C11 | 100n | C_0402_1005Metric | (53.7850, 59.8600) mm | -90.0 deg</title><rect x="685.44" y="233.17" width="11.93" height="5.96" rx="2" ry="2" fill="#2f6fdd" opacity="0.72" stroke="#243040" stroke-width="0.8" transform="rotate(-90.00 691.40 236.16)" /></g>
<g><title>C11 | 100n | C_0402_1005Metric | (11.2450, 59.8600) mm | -90.0 deg</title><rect x="178.14" y="233.17" width="11.93" height="5.96" rx="2" ry="2" fill="#2f6fdd" opacity="0.72" stroke="#243040" stroke-width="0.8" transform="rotate(-90.00 184.10 236.16)" /></g>
<g><title>C13 | 1uF | C_0402_1005Metric | (-3.9600, 53.9600) mm | 0.0 deg</title><rect x="-3.19" y="303.53" width="11.93" height="5.96" rx="2" ry="2" fill="#2f6fdd" opacity="0.72" stroke="#243040" stroke-width="0.8" transform="rotate(0.00 2.78 306.51)" /></g>
<g><title>C13 | 1uF | C_0402_1005Metric | (38.5800, 53.9600) mm | 0.0 deg</title><rect x="504.11" y="303.53" width="11.93" height="5.96" rx="2" ry="2" fill="#2f6fdd" opacity="0.72" stroke="#243040" stroke-width="0.8" transform="rotate(0.00 510.08 306.51)" /></g>
<g><title>C15 | 100n | C_0402_1005Metric | (6.9650, 59.8600) mm | -90.0 deg</title><rect x="127.10" y="233.17" width="11.93" height="5.96" rx="2" ry="2" fill="#2f6fdd" opacity="0.72" stroke="#243040" stroke-width="0.8" transform="rotate(-90.00 133.06 236.16)" /></g>
<g><title>C15 | 100n | C_0402_1005Metric | (49.5050, 59.8600) mm | -90.0 deg</title><rect x="634.40" y="233.17" width="11.93" height="5.96" rx="2" ry="2" fill="#2f6fdd" opacity="0.72" stroke="#243040" stroke-width="0.8" transform="rotate(-90.00 640.36 236.16)" /></g>
<g><title>C23 | 100n | C_0402_1005Metric | (7.8850, 59.8600) mm | -90.0 deg</title><rect x="138.07" y="233.17" width="11.93" height="5.96" rx="2" ry="2" fill="#2f6fdd" opacity="0.72" stroke="#243040" stroke-width="0.8" transform="rotate(-90.00 144.03 236.16)" /></g>
<g><title>C23 | 100n | C_0402_1005Metric | (50.4250, 59.8600) mm | -90.0 deg</title><rect x="645.37" y="233.17" width="11.93" height="5.96" rx="2" ry="2" fill="#2f6fdd" opacity="0.72" stroke="#243040" stroke-width="0.8" transform="rotate(-90.00 651.33 236.16)" /></g>
<g><title>C24 | 100n | C_0402_1005Metric | (48.3050, 54.1900) mm | 180.0 deg</title><rect x="620.09" y="300.79" width="11.93" height="5.96" rx="2" ry="2" fill="#2f6fdd" opacity="0.72" stroke="#243040" stroke-width="0.8" transform="rotate(180.00 626.05 303.77)" /></g>
<g><title>C24 | 100n | C_0402_1005Metric | (5.7650, 54.1900) mm | 180.0 deg</title><rect x="112.79" y="300.79" width="11.93" height="5.96" rx="2" ry="2" fill="#2f6fdd" opacity="0.72" stroke="#243040" stroke-width="0.8" transform="rotate(180.00 118.75 303.77)" /></g>
<g><title>C25 | 100n | C_0402_1005Metric | (56.9650, 59.8600) mm | -90.0 deg</title><rect x="723.36" y="233.17" width="11.93" height="5.96" rx="2" ry="2" fill="#2f6fdd" opacity="0.72" stroke="#243040" stroke-width="0.8" transform="rotate(-90.00 729.32 236.16)" /></g>
<g><title>C25 | 100n | C_0402_1005Metric | (14.4250, 59.8600) mm | -90.0 deg</title><rect x="216.06" y="233.17" width="11.93" height="5.96" rx="2" ry="2" fill="#2f6fdd" opacity="0.72" stroke="#243040" stroke-width="0.8" transform="rotate(-90.00 222.02 236.16)" /></g>
<g><title>C26 | 100n | C_0402_1005Metric | (57.1150, 53.0300) mm | 0.0 deg</title><rect x="725.15" y="314.62" width="11.93" height="5.96" rx="2" ry="2" fill="#2f6fdd" opacity="0.72" stroke="#243040" stroke-width="0.8" transform="rotate(0.00 731.11 317.61)" /></g>
<g><title>C26 | 100n | C_0402_1005Metric | (14.5750, 53.0300) mm | 0.0 deg</title><rect x="217.85" y="314.62" width="11.93" height="5.96" rx="2" ry="2" fill="#2f6fdd" opacity="0.72" stroke="#243040" stroke-width="0.8" transform="rotate(0.00 223.81 317.61)" /></g>
<g><title>C27 | 100n | C_0402_1005Metric | (57.1150, 56.0450) mm | 0.0 deg</title><rect x="725.15" y="278.67" width="11.93" height="5.96" rx="2" ry="2" fill="#2f6fdd" opacity="0.72" stroke="#243040" stroke-width="0.8" transform="rotate(0.00 731.11 281.65)" /></g>
<g><title>C27 | 100n | C_0402_1005Metric | (14.5750, 56.0450) mm | 0.0 deg</title><rect x="217.85" y="278.67" width="11.93" height="5.96" rx="2" ry="2" fill="#2f6fdd" opacity="0.72" stroke="#243040" stroke-width="0.8" transform="rotate(0.00 223.81 281.65)" /></g>
<g><title>C28 | 100n | C_0402_1005Metric | (50.7800, 50.6700) mm | 90.0 deg</title><rect x="649.60" y="342.77" width="11.93" height="5.96" rx="2" ry="2" fill="#2f6fdd" opacity="0.72" stroke="#243040" stroke-width="0.8" transform="rotate(90.00 655.56 345.75)" /></g>
<g><title>C28 | 100n | C_0402_1005Metric | (8.2400, 50.6700) mm | 90.0 deg</title><rect x="142.30" y="342.77" width="11.93" height="5.96" rx="2" ry="2" fill="#2f6fdd" opacity="0.72" stroke="#243040" stroke-width="0.8" transform="rotate(90.00 148.26 345.75)" /></g>
<g><title>C29 | 100n | C_0402_1005Metric | (48.2750, 50.6700) mm | 90.0 deg</title><rect x="619.73" y="342.77" width="11.93" height="5.96" rx="2" ry="2" fill="#2f6fdd" opacity="0.72" stroke="#243040" stroke-width="0.8" transform="rotate(90.00 625.69 345.75)" /></g>
<g><title>C29 | 100n | C_0402_1005Metric | (5.7350, 50.6700) mm | 90.0 deg</title><rect x="112.43" y="342.77" width="11.93" height="5.96" rx="2" ry="2" fill="#2f6fdd" opacity="0.72" stroke="#243040" stroke-width="0.8" transform="rotate(90.00 118.39 345.75)" /></g>
<g><title>C30 | 10uF | C_0603_1608Metric | (49.5850, 47.1700) mm | -90.0 deg</title><rect x="631.77" y="382.72" width="19.08" height="9.54" rx="2" ry="2" fill="#2f6fdd" opacity="0.72" stroke="#243040" stroke-width="0.8" transform="rotate(-90.00 641.31 387.49)" /></g>
<g><title>C30 | 10uF | C_0603_1608Metric | (7.0450, 47.1700) mm | -90.0 deg</title><rect x="124.47" y="382.72" width="19.08" height="9.54" rx="2" ry="2" fill="#2f6fdd" opacity="0.72" stroke="#243040" stroke-width="0.8" transform="rotate(-90.00 134.01 387.49)" /></g>
<g><title>C31 | 10uF | C_0603_1608Metric | (57.7450, 47.4950) mm | 90.0 deg</title><rect x="729.08" y="378.84" width="19.08" height="9.54" rx="2" ry="2" fill="#2f6fdd" opacity="0.72" stroke="#243040" stroke-width="0.8" transform="rotate(90.00 738.62 383.61)" /></g>
<g><title>C31 | 10uF | C_0603_1608Metric | (15.2050, 47.4950) mm | 90.0 deg</title><rect x="221.78" y="378.84" width="19.08" height="9.54" rx="2" ry="2" fill="#2f6fdd" opacity="0.72" stroke="#243040" stroke-width="0.8" transform="rotate(90.00 231.32 383.61)" /></g>
<g><title>C35 | 100n | C_0402_1005Metric | (51.3550, 59.8600) mm | -90.0 deg</title><rect x="656.46" y="233.17" width="11.93" height="5.96" rx="2" ry="2" fill="#2f6fdd" opacity="0.72" stroke="#243040" stroke-width="0.8" transform="rotate(-90.00 662.42 236.16)" /></g>
<g><title>C35 | 100n | C_0402_1005Metric | (8.8150, 59.8600) mm | -90.0 deg</title><rect x="149.16" y="233.17" width="11.93" height="5.96" rx="2" ry="2" fill="#2f6fdd" opacity="0.72" stroke="#243040" stroke-width="0.8" transform="rotate(-90.00 155.12 236.16)" /></g>
<g><title>C36 | 100n | C_0402_1005Metric | (57.1150, 54.5300) mm | 0.0 deg</title><rect x="725.15" y="296.74" width="11.93" height="5.96" rx="2" ry="2" fill="#2f6fdd" opacity="0.72" stroke="#243040" stroke-width="0.8" transform="rotate(0.00 731.11 299.72)" /></g>
<g><title>C36 | 100n | C_0402_1005Metric | (14.5750, 54.5300) mm | 0.0 deg</title><rect x="217.85" y="296.74" width="11.93" height="5.96" rx="2" ry="2" fill="#2f6fdd" opacity="0.72" stroke="#243040" stroke-width="0.8" transform="rotate(0.00 223.81 299.72)" /></g>
<g><title>C37 | 100n | C_0402_1005Metric | (51.7750, 50.6700) mm | 90.0 deg</title><rect x="661.47" y="342.77" width="11.93" height="5.96" rx="2" ry="2" fill="#2f6fdd" opacity="0.72" stroke="#243040" stroke-width="0.8" transform="rotate(90.00 667.43 345.75)" /></g>
<g><title>C37 | 100n | C_0402_1005Metric | (9.2350, 50.6700) mm | 90.0 deg</title><rect x="154.17" y="342.77" width="11.93" height="5.96" rx="2" ry="2" fill="#2f6fdd" opacity="0.72" stroke="#243040" stroke-width="0.8" transform="rotate(90.00 160.13 345.75)" /></g>
<g><title>C38 | 100n | C_0402_1005Metric | (56.0150, 59.8600) mm | -90.0 deg</title><rect x="712.03" y="233.17" width="11.93" height="5.96" rx="2" ry="2" fill="#2f6fdd" opacity="0.72" stroke="#243040" stroke-width="0.8" transform="rotate(-90.00 717.99 236.16)" /></g>
<g><title>C38 | 100n | C_0402_1005Metric | (13.4750, 59.8600) mm | -90.0 deg</title><rect x="204.73" y="233.17" width="11.93" height="5.96" rx="2" ry="2" fill="#2f6fdd" opacity="0.72" stroke="#243040" stroke-width="0.8" transform="rotate(-90.00 210.69 236.16)" /></g>
<g><title>C39 | 100n | C_0402_1005Metric | (13.2250, 50.8000) mm | 90.0 deg</title><rect x="201.75" y="341.22" width="11.93" height="5.96" rx="2" ry="2" fill="#2f6fdd" opacity="0.72" stroke="#243040" stroke-width="0.8" transform="rotate(90.00 207.71 344.20)" /></g>
<g><title>C39 | 100n | C_0402_1005Metric | (55.7650, 50.8000) mm | 90.0 deg</title><rect x="709.05" y="341.22" width="11.93" height="5.96" rx="2" ry="2" fill="#2f6fdd" opacity="0.72" stroke="#243040" stroke-width="0.8" transform="rotate(90.00 715.01 344.20)" /></g>
<g><title>C53 | 100n | C_0402_1005Metric | (69.7950, 53.9500) mm | 180.0 deg</title><rect x="876.36" y="303.65" width="11.93" height="5.96" rx="2" ry="2" fill="#2f6fdd" opacity="0.72" stroke="#243040" stroke-width="0.8" transform="rotate(180.00 882.32 306.63)" /></g>
<g><title>C53 | 100n | C_0402_1005Metric | (27.2550, 53.9500) mm | 180.0 deg</title><rect x="369.06" y="303.65" width="11.93" height="5.96" rx="2" ry="2" fill="#2f6fdd" opacity="0.72" stroke="#243040" stroke-width="0.8" transform="rotate(180.00 375.02 306.63)" /></g>
<g><title>C54 | 100n | C_0402_1005Metric | (65.1750, 51.3550) mm | -90.0 deg</title><rect x="821.26" y="334.60" width="11.93" height="5.96" rx="2" ry="2" fill="#2f6fdd" opacity="0.72" stroke="#243040" stroke-width="0.8" transform="rotate(-90.00 827.23 337.58)" /></g>
<g><title>C54 | 100n | C_0402_1005Metric | (22.6350, 51.3550) mm | -90.0 deg</title><rect x="313.96" y="334.60" width="11.93" height="5.96" rx="2" ry="2" fill="#2f6fdd" opacity="0.72" stroke="#243040" stroke-width="0.8" transform="rotate(-90.00 319.93 337.58)" /></g>
<g><title>C55 | 10uF | C_0603_1608Metric | (44.6850, 64.1350) mm | 90.0 deg</title><rect x="573.34" y="180.41" width="19.08" height="9.54" rx="2" ry="2" fill="#2f6fdd" opacity="0.72" stroke="#243040" stroke-width="0.8" transform="rotate(90.00 582.88 185.18)" /></g>
<g><title>C55 | 10uF | C_0603_1608Metric | (2.1450, 64.1350) mm | 90.0 deg</title><rect x="66.04" y="180.41" width="19.08" height="9.54" rx="2" ry="2" fill="#2f6fdd" opacity="0.72" stroke="#243040" stroke-width="0.8" transform="rotate(90.00 75.58 185.18)" /></g>
<g><title>C57 | 10uF | C_0603_1608Metric | (46.1450, 64.1350) mm | 90.0 deg</title><rect x="590.75" y="180.41" width="19.08" height="9.54" rx="2" ry="2" fill="#2f6fdd" opacity="0.72" stroke="#243040" stroke-width="0.8" transform="rotate(90.00 600.29 185.18)" /></g>
<g><title>C57 | 10uF | C_0603_1608Metric | (3.6050, 64.1350) mm | 90.0 deg</title><rect x="83.45" y="180.41" width="19.08" height="9.54" rx="2" ry="2" fill="#2f6fdd" opacity="0.72" stroke="#243040" stroke-width="0.8" transform="rotate(90.00 92.99 185.18)" /></g>
<g><title>C58 | 10uF | C_0603_1608Metric | (44.3700, 58.0450) mm | 90.0 deg</title><rect x="569.58" y="253.03" width="19.08" height="9.54" rx="2" ry="2" fill="#2f6fdd" opacity="0.72" stroke="#243040" stroke-width="0.8" transform="rotate(90.00 579.12 257.80)" /></g>
<g><title>C58 | 10uF | C_0603_1608Metric | (1.8300, 58.0450) mm | 90.0 deg</title><rect x="62.28" y="253.03" width="19.08" height="9.54" rx="2" ry="2" fill="#2f6fdd" opacity="0.72" stroke="#243040" stroke-width="0.8" transform="rotate(90.00 71.82 257.80)" /></g>
<g><title>C59 | 10uF | C_0603_1608Metric | (44.5100, 61.8600) mm | 0.0 deg</title><rect x="571.25" y="207.54" width="19.08" height="9.54" rx="2" ry="2" fill="#2f6fdd" opacity="0.72" stroke="#243040" stroke-width="0.8" transform="rotate(0.00 580.79 212.31)" /></g>
<g><title>C59 | 10uF | C_0603_1608Metric | (1.9700, 61.8600) mm | 0.0 deg</title><rect x="63.95" y="207.54" width="19.08" height="9.54" rx="2" ry="2" fill="#2f6fdd" opacity="0.72" stroke="#243040" stroke-width="0.8" transform="rotate(0.00 73.49 212.31)" /></g>
<g><title>C61 | 100n | C_0402_1005Metric | (48.5250, 57.9550) mm | -90.0 deg</title><rect x="622.71" y="255.89" width="11.93" height="5.96" rx="2" ry="2" fill="#2f6fdd" opacity="0.72" stroke="#243040" stroke-width="0.8" transform="rotate(-90.00 628.67 258.87)" /></g>
<g><title>C61 | 100n | C_0402_1005Metric | (5.9850, 57.9550) mm | -90.0 deg</title><rect x="115.41" y="255.89" width="11.93" height="5.96" rx="2" ry="2" fill="#2f6fdd" opacity="0.72" stroke="#243040" stroke-width="0.8" transform="rotate(-90.00 121.37 258.87)" /></g>
<g><title>C62 | 100n | C_0402_1005Metric | (49.5000, 57.9550) mm | -90.0 deg</title><rect x="634.34" y="255.89" width="11.93" height="5.96" rx="2" ry="2" fill="#2f6fdd" opacity="0.72" stroke="#243040" stroke-width="0.8" transform="rotate(-90.00 640.30 258.87)" /></g>
<g><title>C62 | 100n | C_0402_1005Metric | (6.9600, 57.9550) mm | -90.0 deg</title><rect x="127.04" y="255.89" width="11.93" height="5.96" rx="2" ry="2" fill="#2f6fdd" opacity="0.72" stroke="#243040" stroke-width="0.8" transform="rotate(-90.00 133.00 258.87)" /></g>
<g><title>C63 | 100n | C_0402_1005Metric | (4.9850, 59.7900) mm | 90.0 deg</title><rect x="103.48" y="234.01" width="11.93" height="5.96" rx="2" ry="2" fill="#2f6fdd" opacity="0.72" stroke="#243040" stroke-width="0.8" transform="rotate(90.00 109.45 236.99)" /></g>
<g><title>C63 | 100n | C_0402_1005Metric | (47.5250, 59.7900) mm | 90.0 deg</title><rect x="610.78" y="234.01" width="11.93" height="5.96" rx="2" ry="2" fill="#2f6fdd" opacity="0.72" stroke="#243040" stroke-width="0.8" transform="rotate(90.00 616.75 236.99)" /></g>
<g><title>C65 | 100n | C_0402_1005Metric | (48.3050, 55.1200) mm | 180.0 deg</title><rect x="620.09" y="289.70" width="11.93" height="5.96" rx="2" ry="2" fill="#2f6fdd" opacity="0.72" stroke="#243040" stroke-width="0.8" transform="rotate(180.00 626.05 292.68)" /></g>
<g><title>C65 | 100n | C_0402_1005Metric | (5.7650, 55.1200) mm | 180.0 deg</title><rect x="112.79" y="289.70" width="11.93" height="5.96" rx="2" ry="2" fill="#2f6fdd" opacity="0.72" stroke="#243040" stroke-width="0.8" transform="rotate(180.00 118.75 292.68)" /></g>
<g><title>C66 | 10uF | C_0603_1608Metric | (56.7700, 63.7550) mm | -90.0 deg</title><rect x="717.46" y="184.94" width="19.08" height="9.54" rx="2" ry="2" fill="#2f6fdd" opacity="0.72" stroke="#243040" stroke-width="0.8" transform="rotate(-90.00 727.00 189.71)" /></g>
<g><title>C66 | 10uF | C_0603_1608Metric | (14.2300, 63.7550) mm | -90.0 deg</title><rect x="210.16" y="184.94" width="19.08" height="9.54" rx="2" ry="2" fill="#2f6fdd" opacity="0.72" stroke="#243040" stroke-width="0.8" transform="rotate(-90.00 219.70 189.71)" /></g>
<g><title>C68 | 10uF | C_0603_1608Metric | (12.7650, 63.7550) mm | -90.0 deg</title><rect x="192.69" y="184.94" width="19.08" height="9.54" rx="2" ry="2" fill="#2f6fdd" opacity="0.72" stroke="#243040" stroke-width="0.8" transform="rotate(-90.00 202.23 189.71)" /></g>
<g><title>C68 | 10uF | C_0603_1608Metric | (55.3050, 63.7550) mm | -90.0 deg</title><rect x="699.98" y="184.94" width="19.08" height="9.54" rx="2" ry="2" fill="#2f6fdd" opacity="0.72" stroke="#243040" stroke-width="0.8" transform="rotate(-90.00 709.52 189.71)" /></g>
<g><title>D2 | DOWO_RCLAMP0524P | RCLAMP0524PATCT | (10.7903, 15.7130) mm | 180.0 deg</title><rect x="169.14" y="757.85" width="19.08" height="9.54" rx="2" ry="2" fill="#9c3fb3" opacity="0.72" stroke="#243040" stroke-width="0.8" transform="rotate(180.00 178.68 762.62)" /></g>
<g><title>D2 | DOWO_RCLAMP0524P | RCLAMP0524PATCT | (53.3303, 15.7180) mm | 180.0 deg</title><rect x="676.44" y="757.79" width="19.08" height="9.54" rx="2" ry="2" fill="#9c3fb3" opacity="0.72" stroke="#243040" stroke-width="0.8" transform="rotate(180.00 685.98 762.56)" /></g>
<g><title>F1 | 1206L150/16NR | R_1206_3216Metric | (62.4100, 12.8600) mm | 180.0 deg</title><rect x="775.17" y="787.10" width="38.16" height="19.08" rx="2" ry="2" fill="#586174" opacity="0.72" stroke="#243040" stroke-width="0.8" transform="rotate(180.00 794.25 796.64)" /></g>
<g><title>F1 | 1206L150/16NR | R_1206_3216Metric | (19.8700, 12.8550) mm | 180.0 deg</title><rect x="267.87" y="787.16" width="38.16" height="19.08" rx="2" ry="2" fill="#586174" opacity="0.72" stroke="#243040" stroke-width="0.8" transform="rotate(180.00 286.95 796.70)" /></g>
<g><title>FB1 | 120 | BLM18SP221SN1B | (53.7450, 63.7500) mm | -90.0 deg</title><rect x="681.38" y="185.00" width="19.08" height="9.54" rx="2" ry="2" fill="#586174" opacity="0.72" stroke="#243040" stroke-width="0.8" transform="rotate(-90.00 690.92 189.77)" /></g>
<g><title>FB1 | 120 | BLM18SP221SN1B | (11.2050, 63.7500) mm | -90.0 deg</title><rect x="174.08" y="185.00" width="19.08" height="9.54" rx="2" ry="2" fill="#586174" opacity="0.72" stroke="#243040" stroke-width="0.8" transform="rotate(-90.00 183.62 189.77)" /></g>
<g><title>FB2 | 120 | BLM18SP221SN1B | (56.0400, 47.4950) mm | 90.0 deg</title><rect x="708.75" y="378.84" width="19.08" height="9.54" rx="2" ry="2" fill="#586174" opacity="0.72" stroke="#243040" stroke-width="0.8" transform="rotate(90.00 718.29 383.61)" /></g>
<g><title>FB2 | 120 | BLM18SP221SN1B | (13.5000, 47.4950) mm | 90.0 deg</title><rect x="201.45" y="378.84" width="19.08" height="9.54" rx="2" ry="2" fill="#586174" opacity="0.72" stroke="#243040" stroke-width="0.8" transform="rotate(90.00 210.99 383.61)" /></g>
<g><title>FB3 | 120 | BLM18SP221SN1B | (3.3250, 57.4600) mm | 90.0 deg</title><rect x="80.11" y="260.01" width="19.08" height="9.54" rx="2" ry="2" fill="#586174" opacity="0.72" stroke="#243040" stroke-width="0.8" transform="rotate(90.00 89.65 264.78)" /></g>
<g><title>FB3 | 120 | BLM18SP221SN1B | (45.8650, 57.4600) mm | 90.0 deg</title><rect x="587.41" y="260.01" width="19.08" height="9.54" rx="2" ry="2" fill="#586174" opacity="0.72" stroke="#243040" stroke-width="0.8" transform="rotate(90.00 596.95 264.78)" /></g>
<g><title>FB4 | 120 | BLM18SP221SN1B | (48.4350, 62.3300) mm | -90.0 deg</title><rect x="618.06" y="201.93" width="19.08" height="9.54" rx="2" ry="2" fill="#586174" opacity="0.72" stroke="#243040" stroke-width="0.8" transform="rotate(-90.00 627.60 206.70)" /></g>
<g><title>FB4 | 120 | BLM18SP221SN1B | (5.8950, 62.3300) mm | -90.0 deg</title><rect x="110.76" y="201.93" width="19.08" height="9.54" rx="2" ry="2" fill="#586174" opacity="0.72" stroke="#243040" stroke-width="0.8" transform="rotate(-90.00 120.30 206.70)" /></g>
<g><title>J1 | TYPE-C_16P_QTGM027 | USB421603A | (53.0600, 8.4800) mm | 180.0 deg</title><rect x="635.05" y="830.99" width="95.40" height="35.78" rx="2" ry="2" fill="#d1830f" opacity="0.72" stroke="#243040" stroke-width="0.8" transform="rotate(180.00 682.75 848.87)" /></g>
<g><title>J1 | TYPE-C_16P_QTGM027 | USB421603A | (10.5200, 8.4750) mm | 180.0 deg</title><rect x="127.75" y="831.05" width="95.40" height="35.78" rx="2" ry="2" fill="#d1830f" opacity="0.72" stroke="#243040" stroke-width="0.8" transform="rotate(180.00 175.45 848.93)" /></g>
<g><title>J2 | DF40C-50DP-0.4V_51_ | DF40C50DP04V51 | (9.9850, 71.7900) mm | 180.0 deg</title><rect x="121.37" y="76.00" width="95.40" height="35.78" rx="2" ry="2" fill="#d1830f" opacity="0.72" stroke="#243040" stroke-width="0.8" transform="rotate(180.00 169.07 93.89)" /></g>
<g><title>J2 | DF40C-50DP-0.4V_51_ | DF40C50DP04V51 | (52.5250, 71.7900) mm | 180.0 deg</title><rect x="628.67" y="76.00" width="95.40" height="35.78" rx="2" ry="2" fill="#d1830f" opacity="0.72" stroke="#243040" stroke-width="0.8" transform="rotate(180.00 676.37 93.89)" /></g>
<g><title>R1 | 4k7 | R_0402_1005Metric | (2.3943, 51.1718) mm | 180.0 deg</title><rect x="72.59" y="336.78" width="11.93" height="5.96" rx="2" ry="2" fill="#2a9d55" opacity="0.72" stroke="#243040" stroke-width="0.8" transform="rotate(180.00 78.55 339.76)" /></g>
<g><title>R1 | 4k7 | R_0402_1005Metric | (44.9343, 51.1718) mm | 180.0 deg</title><rect x="579.89" y="336.78" width="11.93" height="5.96" rx="2" ry="2" fill="#2a9d55" opacity="0.72" stroke="#243040" stroke-width="0.8" transform="rotate(180.00 585.85 339.76)" /></g>
<g><title>R3 | 4k7 | R_0402_1005Metric | (44.9343, 52.1168) mm | 180.0 deg</title><rect x="579.89" y="325.51" width="11.93" height="5.96" rx="2" ry="2" fill="#2a9d55" opacity="0.72" stroke="#243040" stroke-width="0.8" transform="rotate(180.00 585.85 328.50)" /></g>
<g><title>R3 | 4k7 | R_0402_1005Metric | (2.3943, 52.1168) mm | 180.0 deg</title><rect x="72.59" y="325.51" width="11.93" height="5.96" rx="2" ry="2" fill="#2a9d55" opacity="0.72" stroke="#243040" stroke-width="0.8" transform="rotate(180.00 78.55 328.50)" /></g>
<g><title>R5 | 4k7 | R_0402_1005Metric | (2.3943, 53.0618) mm | 180.0 deg</title><rect x="72.59" y="314.24" width="11.93" height="5.96" rx="2" ry="2" fill="#2a9d55" opacity="0.72" stroke="#243040" stroke-width="0.8" transform="rotate(180.00 78.55 317.23)" /></g>
<g><title>R5 | 4k7 | R_0402_1005Metric | (44.9343, 53.0618) mm | 180.0 deg</title><rect x="579.89" y="314.24" width="11.93" height="5.96" rx="2" ry="2" fill="#2a9d55" opacity="0.72" stroke="#243040" stroke-width="0.8" transform="rotate(180.00 585.85 317.23)" /></g>
<g><title>R7 | 4k7 | R_0402_1005Metric | (59.3000, 58.0650) mm | -90.0 deg</title><rect x="751.20" y="254.58" width="11.93" height="5.96" rx="2" ry="2" fill="#2a9d55" opacity="0.72" stroke="#243040" stroke-width="0.8" transform="rotate(-90.00 757.17 257.56)" /></g>
<g><title>R7 | 4k7 | R_0402_1005Metric | (16.7600, 58.0650) mm | -90.0 deg</title><rect x="243.90" y="254.58" width="11.93" height="5.96" rx="2" ry="2" fill="#2a9d55" opacity="0.72" stroke="#243040" stroke-width="0.8" transform="rotate(-90.00 249.87 257.56)" /></g>
<g><title>R10 | 100k | R_0402_1005Metric_Pad0.72x0.64mm_HandSolder | (52.1350, 62.2075) mm | -90.0 deg</title><rect x="665.76" y="205.18" width="11.93" height="5.96" rx="2" ry="2" fill="#2a9d55" opacity="0.72" stroke="#243040" stroke-width="0.8" transform="rotate(-90.00 671.72 208.16)" /></g>
<g><title>R10 | 100k | R_0402_1005Metric_Pad0.72x0.64mm_HandSolder | (9.5950, 62.2075) mm | -90.0 deg</title><rect x="158.46" y="205.18" width="11.93" height="5.96" rx="2" ry="2" fill="#2a9d55" opacity="0.72" stroke="#243040" stroke-width="0.8" transform="rotate(-90.00 164.42 208.16)" /></g>
</svg>
